<?xml version="1.0" encoding="utf-8"?>
<!-- Generator: Adobe Illustrator 27.5.0, SVG Export Plug-In . SVG Version: 6.00 Build 0)  -->
<svg version="1.1" id="Слой_1" xmlns="http://www.w3.org/2000/svg" xmlns:xlink="http://www.w3.org/1999/xlink" x="0px" y="0px"
	 viewBox="0 0 2864.328 2000" style="enable-background:new 0 0 2864.328 2000;" xml:space="preserve">
<g>
	<rect x="-0.001" style="fill:#FFFFFF;" width="2864.313" height="2000"/>
	<defs>
		<filter id="Adobe_OpacityMaskFilter" filterUnits="userSpaceOnUse" x="68.763" y="659.227" width="2726.786" height="1264.93">
			<feFlood  style="flood-color:white;flood-opacity:1" result="back"/>
			<feBlend  in="SourceGraphic" in2="back" mode="normal"/>
		</filter>
	</defs>
	<mask maskUnits="userSpaceOnUse" x="68.763" y="659.227" width="2726.786" height="1264.93" id="SVGID_1_">
		<g style="filter:url(#Adobe_OpacityMaskFilter);">
			<defs>
				
					<filter id="Adobe_OpacityMaskFilter_00000080916524038975429600000006387381501162798499_" filterUnits="userSpaceOnUse" x="68.763" y="659.227" width="2726.786" height="1264.93">
					<feFlood  style="flood-color:white;flood-opacity:1" result="back"/>
					<feBlend  in="SourceGraphic" in2="back" mode="normal"/>
				</filter>
			</defs>
			<mask maskUnits="userSpaceOnUse" x="68.763" y="659.227" width="2726.786" height="1264.93" id="SVGID_1_">
				<g style="filter:url(#Adobe_OpacityMaskFilter_00000080916524038975429600000006387381501162798499_);">
				</g>
			</mask>
			
				<linearGradient id="SVGID_00000018211731614094995250000007896147270066594981_" gradientUnits="userSpaceOnUse" x1="1432.1558" y1="763.6462" x2="1432.1558" y2="1143.0732">
				<stop  offset="0" style="stop-color:#FFFFFF"/>
				<stop  offset="1" style="stop-color:#000000"/>
			</linearGradient>
			<polygon style="mask:url(#SVGID_1_);fill:url(#SVGID_00000018211731614094995250000007896147270066594981_);" points="
				2795.549,833.881 2795.549,1924.157 68.763,1924.157 68.763,1087.803 68.763,1087.803 68.763,870.33 156.964,870.33 
				156.964,981.113 269.306,981.113 313.75,1032.834 358.847,1032.834 358.847,764.82 462.597,764.82 462.597,833.881 
				550.65,833.881 550.65,967.19 668.938,967.19 668.938,799.921 762.284,799.921 762.284,870.288 810.824,870.288 852.839,821.393 
				900.654,821.393 900.654,659.227 1034.312,659.227 1034.312,899.903 1170.941,899.903 1170.941,957.91 1223.904,957.91 
				1223.904,870.33 1425.786,870.33 1425.786,967.19 1503.001,967.19 1503.001,833.881 1620.781,833.881 1620.781,1032.834 
				1627.668,1032.834 1627.668,764.82 1731.455,764.82 1731.455,833.881 1819.473,833.881 1819.473,967.19 1937.723,967.19 
				1937.723,799.921 2031.069,799.921 2031.069,870.288 2079.682,870.288 2121.697,821.393 2169.476,821.393 2169.476,659.227 
				2303.098,659.227 2303.098,899.903 2439.8,899.903 2439.8,957.91 2492.763,957.91 2492.763,870.33 2599.051,870.33 
				2599.051,967.19 2771.787,967.19 2771.787,833.881 			"/>
		</g>
	</mask>
	
		<linearGradient id="SVGID_00000117648561175017567480000009643085038781313413_" gradientUnits="userSpaceOnUse" x1="1432.1558" y1="763.6462" x2="1432.1558" y2="1143.0732">
		<stop  offset="0" style="stop-color:#EDEDED"/>
		<stop  offset="1" style="stop-color:#FFFFFF"/>
	</linearGradient>
	<polygon style="fill:url(#SVGID_00000117648561175017567480000009643085038781313413_);" points="2795.549,833.881 
		2795.549,1924.157 68.763,1924.157 68.763,1087.803 68.763,1087.803 68.763,870.33 156.964,870.33 156.964,981.113 
		269.306,981.113 313.75,1032.834 358.847,1032.834 358.847,764.82 462.597,764.82 462.597,833.881 550.65,833.881 550.65,967.19 
		668.938,967.19 668.938,799.921 762.284,799.921 762.284,870.288 810.824,870.288 852.839,821.393 900.654,821.393 
		900.654,659.227 1034.312,659.227 1034.312,899.903 1170.941,899.903 1170.941,957.91 1223.904,957.91 1223.904,870.33 
		1425.786,870.33 1425.786,967.19 1503.001,967.19 1503.001,833.881 1620.781,833.881 1620.781,1032.834 1627.668,1032.834 
		1627.668,764.82 1731.455,764.82 1731.455,833.881 1819.473,833.881 1819.473,967.19 1937.723,967.19 1937.723,799.921 
		2031.069,799.921 2031.069,870.288 2079.682,870.288 2121.697,821.393 2169.476,821.393 2169.476,659.227 2303.098,659.227 
		2303.098,899.903 2439.8,899.903 2439.8,957.91 2492.763,957.91 2492.763,870.33 2599.051,870.33 2599.051,967.19 2771.787,967.19 
		2771.787,833.881 	"/>
	<defs>
		
			<filter id="Adobe_OpacityMaskFilter_00000158022956854554366400000010065452952154609594_" filterUnits="userSpaceOnUse" x="68.763" y="946.453" width="2726.786" height="592.872">
			<feFlood  style="flood-color:white;flood-opacity:1" result="back"/>
			<feBlend  in="SourceGraphic" in2="back" mode="normal"/>
		</filter>
	</defs>
	
		<mask maskUnits="userSpaceOnUse" x="68.763" y="946.453" width="2726.786" height="592.872" id="SVGID_00000163039320099578961710000012170782881115366283_">
		<g style="filter:url(#Adobe_OpacityMaskFilter_00000158022956854554366400000010065452952154609594_);">
			<defs>
				
					<filter id="Adobe_OpacityMaskFilter_00000084515962006845062760000006085698028471051156_" filterUnits="userSpaceOnUse" x="68.763" y="946.453" width="2726.786" height="592.872">
					<feFlood  style="flood-color:white;flood-opacity:1" result="back"/>
					<feBlend  in="SourceGraphic" in2="back" mode="normal"/>
				</filter>
			</defs>
			
				<mask maskUnits="userSpaceOnUse" x="68.763" y="946.453" width="2726.786" height="592.872" id="SVGID_00000163039320099578961710000012170782881115366283_">
				<g style="filter:url(#Adobe_OpacityMaskFilter_00000084515962006845062760000006085698028471051156_);">
				</g>
			</mask>
			
				<linearGradient id="SVGID_00000147915491329803835460000013052350765640662171_" gradientUnits="userSpaceOnUse" x1="1432.1558" y1="926.3121" x2="1432.1558" y2="1243.645">
				<stop  offset="0" style="stop-color:#FFFFFF"/>
				<stop  offset="1" style="stop-color:#000000"/>
			</linearGradient>
			
				<polygon style="mask:url(#SVGID_00000163039320099578961710000012170782881115366283_);fill:url(#SVGID_00000147915491329803835460000013052350765640662171_);" points="
				68.763,1539.325 68.763,994.104 171.461,994.104 171.461,1093.716 289.464,1093.716 325.478,1129.73 717.034,1129.73 
				777.951,1068.813 900.935,1068.813 900.935,966.518 1008.473,966.518 1008.473,1104.443 1206.522,1104.443 1282.838,1028.127 
				1527.731,1028.127 1527.731,1156.737 1636.539,1156.737 1689.505,1103.771 1823.506,1103.771 1861.437,1141.703 
				2027.329,1141.703 2027.329,999.16 2145.332,999.16 2145.332,1046.208 2238.814,1046.208 2238.814,946.453 2324.636,946.453 
				2324.636,1097.215 2565.239,1097.215 2587.739,1119.715 2795.549,1119.715 2795.549,1539.325 			"/>
		</g>
	</mask>
	
		<linearGradient id="SVGID_00000137102038621605183720000007136894481997537448_" gradientUnits="userSpaceOnUse" x1="1432.1558" y1="926.3121" x2="1432.1558" y2="1243.645">
		<stop  offset="0" style="stop-color:#D4D4D4"/>
		<stop  offset="1" style="stop-color:#FFFFFF"/>
	</linearGradient>
	<polygon style="fill:url(#SVGID_00000137102038621605183720000007136894481997537448_);" points="68.763,1539.325 68.763,994.104 
		171.461,994.104 171.461,1093.716 289.464,1093.716 325.478,1129.73 717.034,1129.73 777.951,1068.813 900.935,1068.813 
		900.935,966.518 1008.473,966.518 1008.473,1104.443 1206.522,1104.443 1282.838,1028.127 1527.731,1028.127 1527.731,1156.737 
		1636.539,1156.737 1689.505,1103.771 1823.506,1103.771 1861.437,1141.703 2027.329,1141.703 2027.329,999.16 2145.332,999.16 
		2145.332,1046.208 2238.814,1046.208 2238.814,946.453 2324.636,946.453 2324.636,1097.215 2565.239,1097.215 2587.739,1119.715 
		2795.549,1119.715 2795.549,1539.325 	"/>
	<rect x="0.007" y="1601.624" style="fill:#FFFFFF;" width="2864.32" height="398.36"/>
	
		<linearGradient id="SVGID_00000159458183633139745930000007829644123356183431_" gradientUnits="userSpaceOnUse" x1="-0.001" y1="802.8843" x2="2864.3125" y2="802.8843">
		<stop  offset="0" style="stop-color:#FFAE70"/>
		<stop  offset="1" style="stop-color:#FFD970"/>
	</linearGradient>
	<polygon style="fill:url(#SVGID_00000159458183633139745930000007829644123356183431_);" points="1079.406,0 1079.406,1554.19 
		2641.148,1554.19 2641.148,0 2864.313,0 2864.313,1605.769 2292.835,1605.769 2292.835,1601.623 1079.406,1601.623 
		1030.804,1601.623 -0.001,1601.623 -0.001,0 	"/>
	
		<rect x="1185.873" transform="matrix(-1 -1.224647e-16 1.224647e-16 -1 2387.7271 1553.874)" style="fill:#F2ECE1;" width="15.981" height="1553.874"/>
	
		<rect x="2516.867" transform="matrix(-1 -1.224647e-16 1.224647e-16 -1 5049.7148 1553.874)" style="fill:#F2ECE1;" width="15.98" height="1553.874"/>
	<g>
		<rect x="1111.899" y="24.647" style="fill:#F7F7F7;" width="1506.382" height="30.22"/>
		<rect x="1111.899" y="73.139" style="fill:#F7F7F7;" width="1506.382" height="30.219"/>
		<rect x="1111.899" y="121.629" style="fill:#F7F7F7;" width="1506.382" height="30.22"/>
		<rect x="1111.899" y="170.12" style="fill:#F7F7F7;" width="1506.382" height="30.22"/>
		<rect x="1111.899" y="218.611" style="fill:#F7F7F7;" width="1506.382" height="30.22"/>
		<rect x="1111.899" y="267.103" style="fill:#F7F7F7;" width="1506.382" height="30.22"/>
		<rect x="1111.899" y="315.594" style="fill:#F7F7F7;" width="1506.382" height="30.219"/>
		<rect x="1111.899" y="364.084" style="fill:#F7F7F7;" width="1506.382" height="30.221"/>
	</g>
	
		<linearGradient id="SVGID_00000181765778873194147750000013682836540757600414_" gradientUnits="userSpaceOnUse" x1="219.1084" y1="1701.5698" x2="2645.2031" y2="1701.5698">
		<stop  offset="0" style="stop-color:#FF9F55"/>
		<stop  offset="1" style="stop-color:#FFD255"/>
	</linearGradient>
	<path style="fill:url(#SVGID_00000181765778873194147750000013682836540757600414_);" d="M2645.203,1701.57
		c0,37.295-543.1,67.528-1213.047,67.528s-1213.047-30.233-1213.047-67.528c0-37.296,543.1-67.529,1213.047-67.529
		S2645.203,1664.274,2645.203,1701.57z"/>
	<g>
		<path style="fill:#202338;" d="M2039.242,1647.447c0,0,5.108,9.531,8.446,13.313c3.338,3.783,16.118,10.545,16.188,21.779
			c0.075,12.184-21.546,8.802-30.002,8.357c-8.456-0.445-9.095-6.954-12.656-13.853c-3.56-6.897-7.148-5.729-7.815-11.293
			c-0.668-5.563,3.448-18.305,3.448-18.305H2039.242z"/>
		<g>
			<path style="fill:#202338;" d="M1910.525,1646.338c0,0-10.42,11.633-20.998,14.07c-10.578,2.437-17.977,5.546-18.057,12.221
				c-0.08,6.676,30.441,11.075,42.547,4.345c18.066-10.044,19.902-7.016,21.906-12.036c2.003-5.021-2.406-18.445-2.276-20.043
				C1933.809,1642.922,1910.525,1646.338,1910.525,1646.338z"/>
		</g>
		<g>
			<path style="fill:#81807E;" d="M1911.697,1640.771c0,0-1.377,5.451-1.172,5.566c0.204,0.115,23.837,2.931,23.122-1.443
				c-0.579-3.547-1.407-7.401-1.407-7.401L1911.697,1640.771z"/>
		</g>
		<g>
			<path style="fill:#81807E;" d="M2017.144,1643.769c0,0-0.989,5.2-0.797,5.325c0.19,0.125,23.964,4.37,23.83,0.053
				c-0.107-3.429-2.193-7.426-2.193-7.426L2017.144,1643.769z"/>
		</g>
		<g>
			<path style="fill:#292C47;" d="M1933.185,1314.528c0,0-8.596,83.466-13.065,112.04c-5.226,33.408-6.998,61.012-8.455,78.303
				c-1.833,21.749-2.187,128.734-3.471,135.094c-1.283,6.359,28.469,1.756,28.469,1.756s14.637-139.788,20.097-162.95
				c5.084-21.567,23.952-114.422,28.591-108.532c4.64,5.889,10.393,108.358,13.827,125.368
				c3.436,17.01,13.885,150.177,13.885,150.177s23.679,4.715,29.978-0.615c0,0,2.866-114.764,0.678-146.654
				c-0.835-12.153,14.239-145.722-5.09-199.494C2028.412,1270.602,1933.185,1314.528,1933.185,1314.528z"/>
		</g>
		<g>
			<path style="fill:#DBD8E3;" d="M2010.332,1296.025c0,0-5.735-8.669-11.803-9.783c-6.077-1.114,83.65-44.489,83.411-59.984
				c-0.185-12.568-32.311-33.42-32.311-33.42s0,0.019-0.009,0.056c-0.01,0.009-0.01,0.027-0.01,0.036
				c0,0.02-0.009,0.037-0.009,0.056c-0.682,2.486-9.963,36.921-10.284,53.466c-0.341,17.171,1.024,76.24,1.024,76.24l-22.999,6.16
				l-73.457,0.686l-16.767-6.846c0,0,1.832-18.99,2.514-32.332c0.423-8.479,2.071-23.662,1.647-38.448c0,0,0.268-15.588-1.279-22.3
				c-0.166-29.628-1.961-58.971-1.961-58.971c-0.994-13.434-1.685-25.992-2.081-37.713c3.241-1.713,7.136-3.72,10.257-5.202
				c9.648-4.595,23.092-10.781,31.719-14.74c5.054-2.32,9.999-4.015,9.999-4.015s34.48-3.306,37.279-3.131
				c0.884,0.056,5.192,1.557,10.846,3.711c12.228,4.641,35.797,14.087,39.554,16.784c5.506,3.941,41.547,99.288,42.071,105.844
				C2108.633,1243.992,2010.332,1296.025,2010.332,1296.025z"/>
		</g>
		<path style="fill:#1D2033;" d="M1929.333,1316.422c0,0,50.461,4.297,94.655,0v14.502c0,0-65.813,6.285-96.868-2.766
			L1929.333,1316.422z"/>
		<g>
			<path style="fill:#323657;" d="M1925.155,1132.711c0.386,11.914,0.965,24.693,1.978,38.375c0,0,0.955,33.414,2.878,65.108
				c0.654,4.539,0.986,9.18,0.618,13.931c-0.479,6.196-1.151,12.963-1.962,20.025c-0.009,0.092-0.019,0.184-0.027,0.267
				c-0.194,1.676-0.396,3.36-0.599,5.063c0,0.028-0.01,0.047-0.01,0.074c-4.29,35.31-11.555,75.82-15.348,88.075
				c-0.801,2.56,1.961,4.926,3.931,6.749l13.802,8.7c0,0,5.69-52.379,7.578-70.158c1.823-17.161,7.559-40.171,10.072-62.59v-0.009
				c3.186-28.441,7.571-56.308,9.938-72.862c6.159-43.098,14.367-62.383,14.367-62.383
				C1968.448,1112.248,1925.155,1132.711,1925.155,1132.711z"/>
		</g>
		<g>
			<path style="fill:#323657;" d="M2071.643,1221.881c5.984,13.12-54.921,36.51-53.548,39.746
				c3.294,7.767,16.733,23.586,16.733,23.586s80.188-39.662,79.293-48.657c-0.652-6.548-38.221-105.534-43.724-109.479
				c-3.179-2.281-26.731-10.63-38.287-15.184c-2.113-0.835-9.321-3.545-11.214-4.263c-2.452,2.729-19.352,21.374-25.318,91.828
				c-1.005,11.873,2.17,37.019,4.291,57.543c2.264,21.896,4.77,38.985,6.605,57.296c3.619,36.076,6.15,64.782,6.15,64.782
				l35.905-15.985c5.81-2.907,15.857-10.493,13.673-16.61c-8.301-23.248-20.755-67.309-20.767-87.708c0,0,5.869-56.293,9.043-67.273
				C2050.479,1191.503,2064.949,1207.207,2071.643,1221.881z"/>
		</g>
		<g>
			<path style="fill:#EEA987;" d="M2012.029,1109.508c0,0,0.236-11.838,4.799-35.785c1.22-6.41-37.217,16.867-37.217,16.867
				s0.119,2.245,0.196,5.277c0.041,1.602,0.066,3.42,0.057,5.242c-0.005,0.644-0.011,1.282-0.025,1.916
				c-0.037,1.693-0.114,3.315-0.258,4.695c-0.144,1.421-0.983,3.929-1.282,4.618
				C1976.713,1115.995,1999.085,1118.771,2012.029,1109.508z"/>
		</g>
		<path style="fill:#E64646;" d="M1988.039,1121.91l-6.372,8.56c0,0,3.733,4.999,10.362,1.309L1988.039,1121.91z"/>
		<path style="fill:#E64646;" d="M1983.371,1130.817c0,0-24.164,93.035-19.183,165.454l8.13,14.328l7.609-15.01
			c0,0,2.085-129.538,8.711-165L1983.371,1130.817z"/>
		<path style="fill:#EEA987;" d="M1981.217,1113.929l6.822,7.981c0,0,10.947-2.121,14.162-7.84S1981.217,1113.929,1981.217,1113.929
			z"/>
		<path style="fill:#C4C1CC;" d="M1979.651,1106.944c0,0,0.792,6.084,8.388,14.966l-8.29,11.137l-4.486-23.104L1979.651,1106.944z"
			/>
		<path style="fill:#C4C1CC;" d="M2012.763,1100.176c0,0-13.654,17.357-24.724,21.734l5.148,12.733l23.526-28.435L2012.763,1100.176
			z"/>
		<g>
			<path style="fill:#EEA886;" d="M1784.692,1228.873c0,0-25.312,2.954-26.735,4.574c-1.423,1.621-1.085,2.994,1.3,2.816
				c2.385-0.176,24.589-2.141,24.589-2.141s-29.019,8.572-30.493,9.625c-0.864,0.616-0.367,3.303,0.927,3.326
				c1.294,0.024,30.658-6.793,30.658-6.793s-27.076,8.054-28.021,9.32c-0.826,1.107,0.244,3.502,2.303,3.046
				s27.712-6.481,27.712-6.481s-19.25,7.127-19.382,8.713c-0.081,0.971,0.241,3.305,5.141,1.307s17.038-5.464,17.038-5.464
				L1784.692,1228.873z"/>
		</g>
		<g>
			<g>
				<path style="fill:#EEA886;" d="M1814.626,1230.068c0,0-8.428,0.438-11.004-3.825c-2.19-3.625-7.542-6.91-9.188-7.924
					c-2.202-1.356-7.575-7.931-9.129-5.29s8.364,11.227,10.111,13.418s-10.4,1.389-12.615,2.982
					c-2.216,1.593-1.011,21.697,7.323,21.287c8.334-0.409,16.583-6.367,18.083-6.147s6.093-0.058,6.093-0.058L1814.626,1230.068z"/>
			</g>
		</g>
		<g>
			<path style="fill:#323657;" d="M1811.11,1249.942c0,0,62.097-8.694,75.879-12.085c6.371-1.567,14.763-10.361,22.737-20.701
				c2.629-3.405,5.207-6.979,7.659-10.516c0.008-0.008,0.008-0.015,0.008-0.015c9.783-14.126,17.45-27.665,17.45-27.665
				s28.917-33.891,5.712-48.997c0,0-9.946-0.215-15.4,2.747c-5.609,3.046-17.574,28.016-19.604,32.438
				c-2.028,4.416-24.004,45.487-25.475,46.411c-1.474,0.922-23.406,5.688-33.183,7.727c-14.159,2.953-40.764,8.478-40.764,8.478
				L1811.11,1249.942z"/>
		</g>
		
			<rect x="1966.541" y="1317.194" transform="matrix(-1 -1.224647e-16 1.224647e-16 -1 3956.6826 2652.291)" style="fill:#3A4066;" width="23.601" height="17.902"/>
		<path style="fill:#EFAA88;" d="M2005.964,1297.095c0,0,2.936-0.118,4.193-0.796c0,0,2.195-1.408,3.816-2.315
			c0.516-0.286,0.971-0.524,1.281-0.646c1.296-0.515,4.293-1.256,7.059-3.364c2.763-2.105,11.771-10.533,11.771-10.533l-5.822-8.949
			l-2.688-8.863c0,0-21.001,2.089-23.803,3.753c-0.273,0.165-0.537,0.337-0.772,0.518c-2.234,1.64-3.209,3.799-4.285,4.792
			c-0.392,0.368-4.05,4.283-3.846,5.872c0.281,2.204,1.371,3.618,2.738,4.288c0,0,0.741,4.293,2.96,6.211
			c0,0,0.557,3.981,3.995,5.582C2002.562,1292.643,2003.579,1296.619,2005.964,1297.095z"/>
		<path style="fill:#323657;" d="M2034.828,1285.213c0,0-11.676-9.584-18.002-23.586l35.842-19.627l13.3,27.083L2034.828,1285.213z"
			/>
		<g>
			<path style="fill:#EEA886;" d="M1959.372,1031.662c0,0-8.444,15.656-4.259,18.09c3.458,2.012-4.052,17.375-5.034,19.885
				c-0.982,2.511,6.265,4.334,7.803,5.95c1.538,1.615,6.103,21.494,12.07,22.094c5.968,0.599,32.86-8.753,40.183-16.366
				s13.33-42.003,8.442-56.509S1974.275,1004.315,1959.372,1031.662z"/>
		</g>
		<g>
			<path style="fill:#16202E;" d="M1957.688,1035.055c0,0-8.62-16.907,7.037-29.449c15.656-12.542,44.526,9.471,47.78,10.309
				c3.254,0.84,21.716,2.108,12.394,34.523c-8.005,27.835-9.122,29.007-9.122,29.007s-5.975-16.126-9.359-18.584
				c-5.287-3.838-16.879-2.916-16.879-2.916s5.523-14.664-3.107-16.74C1977.799,1039.129,1966.42,1031.813,1957.688,1035.055z"/>
		</g>
		<g>
			<path style="fill:#EEA886;" d="M1998.734,1049.549c0.761-2.012,3.222-10.656,10.64-5.58s-4.622,21.369-5.915,21.58
				C2002.166,1065.759,1992.327,1066.475,1998.734,1049.549z"/>
		</g>
		<path style="fill:#A77860;" d="M1979.864,1101.109c-0.005,0.644-0.011,1.282-0.025,1.916
			c21.985-7.379,26.243-18.485,26.243-18.485c-6.857,4.851-26.274,11.327-26.274,11.327
			C1979.849,1097.469,1979.874,1099.287,1979.864,1101.109z"/>
	</g>
	<g>
		<g>
			<polygon style="fill:#292C47;" points="2241.358,1173.988 2177.878,1208.883 2114.128,1108.563 2191.231,1081.779 			"/>
		</g>
		<g>
			<polygon style="fill:#E2D2CA;" points="2237.332,1170.975 2177.967,1203.606 2118.351,1109.789 2190.456,1084.743 			"/>
		</g>
		<g>
			<path style="fill:#EEA886;" d="M2259.074,1153.429c0,0-11.049-5.284-15.898-8.046s-17.326-6.554-18.333-7.454
				c-1.008-0.901-36.981-3.12-39.163-5.002c-2.183-1.883-4.304,4.412,5.02,6.454s22.299,7.036,23.008,10.68
				c0.71,3.645-9.576,4.507-10.617,7.509c-1.042,3.001,0.292,2.328,1.767,2.972c1.474,0.645,12.233-5.315,16.966-3.624
				s11.965-0.65,15.592,0.591c3.627,1.242,21.261,7.176,21.261,7.176L2259.074,1153.429z"/>
		</g>
		<g>
			<path style="fill:#EEA886;" d="M2174.783,1196.295c0,0-9.282-8.355-13.773-11.85s-12.922-13.775-14.163-14.373
				c-1.241-0.6-17.341-33.635-19.964-34.959c-2.623-1.323,2.482-5.773,8.037,2.218c5.556,7.991,15.313,18.273,19.023,17.523
				c3.711-0.75,0.519-10.779,2.941-12.93c2.423-2.151,2.309-0.632,3.488,0.507c1.182,1.139-0.245,13.6,3.191,17.4
				s4.046,11.528,6.629,14.463c2.582,2.935,15.039,17.242,15.039,17.242L2174.783,1196.295z"/>
		</g>
		<g>
			<path style="fill:#424773;" d="M2374.687,1642.826c0,0,2.008,13.938,2.259,16.03c0.252,2.094,22.337-1.233,22.337-1.233
				l1.788-16.592C2401.07,1641.031,2377.448,1640.86,2374.687,1642.826z"/>
		</g>
		<g>
			<path style="fill:#292C47;" d="M2376.711,1657.084c0,0-6.997,8.398-13.766,12.059c-6.768,3.661-17.402,5.111-21.405,8.9
				c-2.889,2.734-10.521,14.51,17.587,14.272c28.108-0.238,41.661,1.663,44.673-2.852s-4.357-33.323-4.357-33.323
				S2392.785,1658.536,2376.711,1657.084z"/>
		</g>
		<g>
			<path style="fill:#424773;" d="M2216.443,1642.826c0,0,2.008,13.938,2.259,16.03c0.25,2.094,22.336-1.233,22.336-1.233
				l1.788-16.592C2242.826,1641.031,2219.203,1640.86,2216.443,1642.826z"/>
		</g>
		<g>
			<path style="fill:#292C47;" d="M2218.467,1657.084c0,0-6.998,8.398-13.766,12.059c-6.768,3.661-31.674,6.668-35.675,10.457
				c-2.89,2.734-7.694,13.745,31.856,12.716c28.099-0.731,41.661,1.663,44.673-2.852s-4.357-33.323-4.357-33.323
				S2234.927,1658.699,2218.467,1657.084z"/>
		</g>
		<g>
			<path style="fill:#292C47;" d="M2356.398,1284.71c0,0,20.752,32.971,19.204,62.773c-1.548,29.804,7.524,62.342,10.642,93.476
				c3.475,34.708,17.698,116.875,18.214,135.441s-2.208,77.851-2.208,77.851l-28.47,0.651c0,0-23.911-143.649-30.104-158.307
				s-36.903-119.152-37.935-130.878C2304.71,1353.992,2356.398,1284.71,2356.398,1284.71z"/>
		</g>
		<g>
			<path style="fill:#292C47;" d="M2247.156,1289.177c0,0-15.638,81.686-17.703,99.927c-2.063,18.241-3.439,88.273-4.472,99.674
				c-1.032,11.401-6.881,149.188-12.386,166.125h36.397c0,0,27.938-100.166,27.938-147.558s21.586-103.029,35.519-134.298
				c13.933-31.27,45.827-32.01,54.392-90.024C2366.842,1283.022,2258.753,1270.776,2247.156,1289.177z"/>
		</g>
		<g>
			<path style="fill:#EEA886;" d="M2321.77,1007.513c0,0-27.854-10.403-40.696,10.8c-12.844,21.202-11.605,63.65,2.434,68.87
				c14.041,5.22,35.132,2.49,42.319-10.777c7.188-13.267,13.678-32.447,13.366-45.266
				C2338.881,1018.322,2329.084,1011.213,2321.77,1007.513z"/>
		</g>
		<g>
			<path style="fill:#EEA886;" d="M2286.531,1088.153c0,0,1.158,7.521-0.758,11.225c-1.915,3.705,36.087,3.802,36.087,3.802
				s3.085-20.15,8.934-37.176S2286.531,1088.153,2286.531,1088.153z"/>
		</g>
		<g>
			<path style="fill:#3A3F47;" d="M2330.794,1066.004c0,0-2.622,4.327-13.329,2.648c-10.707-1.68-23.768-15.924-28.237-17.487
				c-4.471-1.563-4.513-4.19-4.513-4.19l-2.8,4.089l-4.747,0.3c0,0,4.33-12.742-2.203-17.938s6.781-41.242,41.116-29.241
				c0,0,26.372,7.27,25.413,22.268C2340.536,1041.449,2336.695,1058.534,2330.794,1066.004z"/>
		</g>
		<g>
			<path style="fill:#E2D2CA;" d="M2283.519,1098.933c0,0,0.12-7.079,3.328-7.757c3.209-0.68,35.414-3.775,39.352-2.228v8.245
				C2326.198,1097.193,2318.61,1101.863,2283.519,1098.933z"/>
		</g>
		<g>
			<path style="fill:#EEA886;" d="M2285.424,1041.521c0.6-2.516,6.997-9.705,9.447-2.008c2.449,7.697-3.701,18.052-7.132,17.165
				S2283.901,1047.898,2285.424,1041.521z"/>
		</g>
		<g>
			<path style="fill:#323657;" d="M2155.703,1182.563c0.015-0.006,0.032-0.008,0.053-0.004
				C2155.535,1182.655,2155.503,1182.664,2155.703,1182.563z"/>
		</g>
		<g>
			<path style="fill:#5B94E2;" d="M2379.81,1363.255c0,0-17.081,5.029-46.211,8.24c-29.13,3.21-101.911-1.161-102.37-4.601
				c-0.46-3.442,15.656-128.144,14.74-134.567c-0.917-6.421-1.409-29.304-1.409-29.304c-0.359,6.27-6.747,31.88-14.457,45.841
				c-2.787,5.044-12.133,20.854-16.636,17.259c-21.805-17.41-55.568-83.012-57.709-83.564c1.8-0.782,16.001-7.321,17.994-7.985
				c1.745-0.583,17.475,16.072,27.006,26.396c4.249,4.604,7.267,7.946,7.267,7.946c2.753-6.192,12.777-45.202,15.892-58.703
				c7.027-30.447,5.946-31.714,5.946-31.714c21.311-6.446,53.656-19.566,53.656-19.566l42.681-1.738c0,0,39.172,8.622,54.599,15.59
				c1.464,0.66,1.47,34.945,5.486,43.937l-12.791,26.982c0,0-7.389,53.451-8.921,77.223
				C2363.868,1271.838,2379.81,1363.255,2379.81,1363.255z"/>
		</g>
		<g>
			<path style="fill:#5B94E2;" d="M2388.056,1201.23c-1.114,3.598-6.175,6.637-9.461,7.966c-2.104,0.852-4.462,1.127-6.834,0.688
				l-1.671-0.31v-0.002l-29.25-5.425c0,0-6.4-73.705,39.958-91.365C2382.023,1113.186,2398.294,1168.23,2388.056,1201.23z"/>
		</g>
		<g>
			<path style="fill:#3D6396;" d="M2378.595,1209.194v0.002c-2.104,0.852-4.462,1.127-6.834,0.688l-1.671-0.31v-0.002l2.884-37.664
				L2378.595,1209.194z"/>
		</g>
		<g>
			<path style="fill:#3D6396;" d="M2208.024,1208.915l-3.574,15.139c0,0-3.88-15.191-3.692-23.085
				C2205.007,1205.572,2208.024,1208.915,2208.024,1208.915z"/>
		</g>
		<g>
			<path style="fill:#3A3F47;" d="M2329.703,1010.015c0,0,36.508-4.212,0.623,56.764L2329.703,1010.015z"/>
		</g>
		<g>
			<polygon style="fill:#292C47;" points="2143.475,1103.18 2139.765,1096.805 2168.992,1086.72 2172.701,1093.061 			"/>
		</g>
	</g>
	<g>
		<path style="fill:#587AA3;" d="M1177.158,1695.96h277.844c19.874,0,35.986-16.112,35.986-35.986v-740.01
			c0-19.875-16.112-35.986-35.986-35.986h-277.844c-19.875,0-35.986,16.111-35.986,35.986v740.01
			C1141.171,1679.848,1157.283,1695.96,1177.158,1695.96z"/>
		
			<linearGradient id="SVGID_00000175319294762950829430000001072870476414497707_" gradientUnits="userSpaceOnUse" x1="1127.1406" y1="1289.4502" x2="1540.458" y2="1289.4502">
			<stop  offset="0" style="stop-color:#FF9F55"/>
			<stop  offset="1" style="stop-color:#FFD255"/>
		</linearGradient>
		<path style="fill:url(#SVGID_00000175319294762950829430000001072870476414497707_);" d="M1166.581,1702.194h334.437
			c21.783,0,39.44-17.658,39.44-39.44V916.146c0-21.782-17.657-39.44-39.44-39.44h-334.437c-21.782,0-39.44,17.658-39.44,39.44
			v746.607C1127.141,1684.536,1144.799,1702.194,1166.581,1702.194z"/>
		<path style="opacity:0.98;fill:#A3CDFF;" d="M1192.17,1695.96h306.232c19.879,0,35.993-16.114,35.993-35.993V919.971
			c0-19.879-16.114-35.993-35.993-35.993H1192.17c-19.878,0-35.993,16.114-35.993,35.993v739.996
			C1156.177,1679.846,1172.292,1695.96,1192.17,1695.96z"/>
		<g>
			<g>
				<g>
					<g>
						<path style="fill:#EDDAD3;" d="M1359.587,1160.712l15.13,23.845l13.965,22.008c-0.033-0.119-0.963-3.451-2.541-13.102
							c-0.3-1.831-0.623-3.891-0.967-6.199c-0.101-0.682-0.25-1.359-0.439-2.028v-0.003c-5.976-13.777-24.455-24.167-25.13-24.512
							C1359.594,1160.714,1359.587,1160.712,1359.587,1160.712z"/>
					</g>
				</g>
			</g>
		</g>
		<g>
			<g>
				<g>
					<path style="fill:#FFCA55;" d="M1384.672,1185.07h0.001c0,0,0.807,1.671,1.468,8.393l-5.471-8.257
						c0,0-9.771-14.01-13.119-17.652c-3.348-3.643-7.947-6.833-7.947-6.833S1378.829,1169.958,1384.672,1185.07z"/>
				</g>
			</g>
		</g>
		<g>
			<g>
				<g>
					<g>
						<path style="fill:#EEA886;" d="M1425.72,1340.523c0,0,3.045,2.911,4.097,5.629c0.833,2.15,3.616,4.998,4.935,6.623
							c1.317,1.626,6.232,9.233,6.934,11.35c0.287,0.865-0.093,6.845,0.686,8.542c0.777,1.697,2.781,4.95,1.265,5.56
							c-1.517,0.61-4.125-1.826-4.125-1.826s0.612,1.588-0.55,2.527c-2.259,1.826-3.939,1.094-3.939,1.094s-0.451,2.014-1.588,2.542
							c-2.507,1.163-4.112,0.409-4.112,0.409s-0.886,1.28-2.732,1.683c-2.361,0.515-3.926-1.28-3.926-1.28s-2.803,1.312-4.061,0.128
							c-1.258-1.184-1.531-2.7-2.247-3.874c-0.716-1.173-3.681-12.605-2.153-21.71s-5.584-15.933-5.584-15.933L1425.72,1340.523z"/>
					</g>
				</g>
			</g>
			<g>
				<path style="fill:#0E1E2B;" d="M1450.854,1410.532h-39.315c-3.992,0-7.241-3.249-7.241-7.241V1378.5
					c0-3.993,3.249-7.241,7.241-7.241h39.315c3.992,0,7.24,3.248,7.24,7.241v24.791
					C1458.094,1407.283,1454.846,1410.532,1450.854,1410.532z M1411.538,1376.117c-1.313,0-2.382,1.069-2.382,2.383v24.791
					c0,1.313,1.069,2.382,2.382,2.382h39.315c1.313,0,2.381-1.068,2.381-2.382V1378.5c0-1.313-1.068-2.383-2.381-2.383H1411.538z"/>
			</g>
			<g>
				<rect x="1357.445" y="1399.891" style="fill:#54281A;" width="147.501" height="105.68"/>
			</g>
			<g>
				<path style="fill:#EEA886;" d="M1368.32,1117.264c0,0-7.331-0.053-10.554,22.539c-3.223,22.591,2.884,32.033,3.611,41.435
					c0.728,9.4,11.757,70.118,12.056,72.802c0.299,2.685,1.779,34.997,6.079,43.572c4.3,8.575,35.91,57.177,36.333,59.604
					c0.423,2.426,15.349-8.467,15.349-8.467s-24.834-51.984-26.274-57.916c-1.44-5.932-11.436-36.219-9.855-45.465
					s-4.426-60.246-3.845-65.923C1391.801,1173.769,1382.798,1120.711,1368.32,1117.264z"/>
			</g>
			<g>
				<path style="fill:#E64646;" d="M1368.544,1117.104c0,0-7.555,0.107-10.778,22.699c-3.223,22.591-0.31,30.725,1.639,40.518
					c1.841,9.248,8.108,65.82,8.408,68.505s7.8,36.789,11.7,48.786c2.966,9.123,31.153,56.887,31.576,59.313
					c0.423,2.427,21.914-11.159,21.914-11.159s-27.56-53.771-29-59.702s-6.106-26.464-6.256-35.843
					c-0.176-11.018-7.107-65.099-6.526-70.775C1391.801,1173.769,1389.627,1124.83,1368.544,1117.104z"/>
			</g>
			<path style="fill:#EDDAD3;" d="M1305.338,1643.982c0,0,13.157,19.539,18.459,24.252c0,0,12.204,4.271,12.961,12.568
				c0.495,5.426,0.02,14.142-13.923,14.534s-22.89-4.476-25.442-12.92c-2.553-8.443-7.372-12.219-7.372-12.219v17.674h-3.142
				c0,0-0.785-17.085-0.981-20.227c-0.197-3.142-2.257-15.222,4.37-20.571C1296.894,1641.725,1305.338,1643.982,1305.338,1643.982z"
				/>
			<path style="fill:#EDDAD3;" d="M1394.589,1628.371c0,0,2.278,5.385,6.579,10.997c3.154,4.115,12.961,21.012,17.281,22.19
				c4.32,1.178,17.674,3.534,18.853,10.996c1.178,7.463,1.767,12.765-11.39,13.354c-13.157,0.589-21.797,1.375-28.082-7.855
				c-6.284-9.229-16.299-15.906-16.299-15.906v24.082h-5.105c0,0-2.356-25.063-3.731-26.831c-1.375-1.767-4.909-21.012,7.266-31.026
				C1392.134,1618.356,1394.589,1628.371,1394.589,1628.371z"/>
			<path style="fill:#EEA886;" d="M1296.501,1266.85c0,0-16.614,21.602-21.121,47.229c-4.506,25.626,2.662,111.637,2.465,124.303
				c-0.196,12.666-11.979,44.184-9.622,68.043s22.044,140.65,22.044,140.65l15.07-3.092c0,0-1.473-121.063,0-131.078
				s4.429-46.521,5.018-50.645c0.589-4.123,37.398-112.408,37.398-130.885C1347.754,1312.899,1336.561,1236.707,1296.501,1266.85z"
				/>
			<path style="fill:#EEA886;" d="M1379.959,1275.294c0,0,27.295,104.176,30.536,118.608c3.24,14.434,7.934,26.338,7.934,32.466
				c0,14.219-5.282,37.051-5.282,37.051l-18.558,164.952h-14.629c0,0-9.229-96.32-10.702-115.762
				c-1.473-19.44,10.604-49.485,7.658-57.732c-2.945-8.248-47.424-103.391-47.424-103.391S1295.814,1245.053,1379.959,1275.294z"/>
			<path style="fill:#EEA886;" d="M1326.062,1669.234c0,0-11.463,5.891-21.871-1.888s-13.923-20.272-13.923-20.272l15.07-3.092
				L1326.062,1669.234z"/>
			<path style="fill:#EEA886;" d="M1418.448,1661.559c0,0-11.782,2.945-16.299,0c-4.517-2.946-19.871-28.898-24.958-30.454
				c0,0,4.928-9.999,17.397-2.733C1394.589,1628.371,1415.11,1657.238,1418.448,1661.559z"/>
			<path style="fill:#1D3B54;" d="M1414.894,1410.517c0,0-50.151,29.518-144.152,29.518c0,0-5.323-109.025,8.343-139.698
				c13.666-30.672,104.392-11.599,104.392-11.599S1411.666,1387.963,1414.894,1410.517z"/>
			<g>
				<path style="fill:#EDDAD3;" d="M1346.375,1108.963c0,0,14.577,6.884,19.639,7.896c5.062,1.012,24.7,26.522,28.142,35.836
					c3.442,9.313,0,23.282-7.086,39.682c-7.086,16.399-0.405,21.865-3.645,38.266c-3.239,16.398-6.074,51.121-5.466,60.231
					s-81.889,10.83-100.718-5.771c0,0,18.924-28.343,21.354-32.393c2.429-4.049,0.405-26.117-1.822-31.786
					s-17.049-53.877-17.049-53.877s-12.126-37.023-1.172-45.531c9.516-7.39,35.45-10.024,40.106-11.645
					C1323.314,1108.252,1336.859,1107.546,1346.375,1108.963z"/>
			</g>
			<g>
				<path style="fill:#D6C5BE;" d="M1351.032,1141.458l8.858-10.372l-7.691-27.308
					C1352.198,1103.778,1349.614,1118.985,1351.032,1141.458z"/>
			</g>
			<g>
				<path style="fill:#EEA886;" d="M1327.979,1005.506c8.662-3.048,40.492-10.527,47.983,30.167s-14.982,69.646-35.633,61.952
					c-20.651-7.693-33.406-35.835-34.621-57.296C1304.493,1018.868,1317.046,1009.352,1327.979,1005.506z"/>
			</g>
			<g>
				<path style="fill:#252E3B;" d="M1375.962,1035.673c0,0,1.559-34.823-33.062-36.038c-34.621-1.215-43.934,27.289-41.1,48.062
					s17.166,31.732,17.166,31.732s-1.245-16.808,5.473-21.172c6.718-4.363,33.646-13.069,45.388-33.315
					C1369.828,1024.942,1375.27,1031.33,1375.962,1035.673z"/>
			</g>
			<g>
				<path style="fill:#252E3B;" d="M1332.797,1031.984c-4.561,13.867-18.085,21.876-30.208,17.89
					c-12.122-3.987-18.251-18.461-13.69-32.328c4.561-13.867,18.085-21.877,30.207-17.89
					C1331.228,1003.643,1337.357,1018.117,1332.797,1031.984z"/>
			</g>
			<g>
				<path style="fill:#EEA886;" d="M1353.333,1092.143c0,0-2.908,26.741-2.301,35.447c0,0-15.146,15.179-32.375-17.719
					c0,0,7.249-13.559,1.793-32.035C1314.994,1059.36,1353.333,1092.143,1353.333,1092.143z"/>
			</g>
			<g>
				<polygon style="fill:#EEA886;" points="1351.032,1127.59 1351.032,1141.458 1333.6,1128.432 				"/>
			</g>
			<g>
				<polygon style="fill:#D6C5BE;" points="1351.032,1141.458 1343.794,1132.5 1319.414,1108.201 1311.527,1115.797 				"/>
			</g>
			<g>
				<path style="fill:#E64646;" d="M1316.029,1110.525c0,0,20.459,31.051,21.437,44.716s-7.604,115.893-14.475,148.754
					c-6.872,32.861-56.525-3.706-56.525-3.706s33.366-54.007,20.559-97.25s-17.463-60.532-17.463-60.532s4.407-24.081,20.023-27.47
					C1303.277,1112.066,1316.029,1110.525,1316.029,1110.525z"/>
			</g>
			<g>
				<path style="fill:#E64646;" d="M1395.502,1156.843c0,0,3.692,13.059-10.686,41.921c0,0,0.229,36.939,0.634,48.48
					c0.405,11.54,3.138,55.17,3.138,55.17l-14.217,8.328c-2.864,1.677-6.41-0.649-6.011-3.944
					c4.026-33.209,17.125-159.181-11.169-193.041l11.354,3.347C1368.544,1117.104,1388.717,1133.61,1395.502,1156.843z"/>
			</g>
			<g>
				<path style="fill:#EEA886;" d="M1327.918,1050.897c-1.259-3.193-5.466-4.089-7.896-2.268c-2.43,1.822-3.847,7.289,0,14.375
					S1337.434,1075.031,1327.918,1050.897z"/>
			</g>
			<g>
				<polygon style="fill:#FAE6DE;" points="1359.89,1131.086 1371.05,1134.17 1352.198,1103.778 				"/>
			</g>
			<g>
				<polygon style="fill:#FAE6DE;" points="1343.794,1132.5 1333.6,1145.861 1312.666,1110.972 1319.414,1108.201 				"/>
			</g>
			<g>
				<path style="fill:#A77860;" d="M1352.733,1098.027l-0.535,5.268c0,0-12.005,2.349-27.759-16.866
					C1324.439,1086.429,1335.605,1100.05,1352.733,1098.027z"/>
			</g>
			<g>
				<g>
					<g>
						<path style="fill:#EEA886;" d="M1414.683,1261.742c0,0,7.08,4.561,11.153,2.012c3.464-2.169,9.507-2.47,11.367-2.565
							c2.488-0.128,9.979-3.367,10.172-0.231c0.193,3.137-12.091,5.935-14.55,7.036c-2.459,1.101,8.368,6.388,9.586,8.912
							c1.219,2.524-8.554,19.96-15.564,15.472c-7.01-4.487-11.538-13.91-12.927-14.454c-1.389-0.545-5.23-3.063-5.23-3.063
							L1414.683,1261.742z"/>
					</g>
				</g>
			</g>
			<g>
				<path style="fill:#EEA886;" d="M1280.041,1119.347c0,0,10.002-1.88,18.505,7.23c8.503,9.11,12.755,24.093,14.982,28.952
					s30.369,49.805,31.989,50.817s30.217,24.091,43.174,36.44s38.215,26.12,38.215,26.12l-9.516,13.362
					c0,0-76.733-40.896-86.451-55.879c-9.718-14.982-48.516-56.489-48.516-56.489S1259.086,1134.438,1280.041,1119.347z"/>
			</g>
			<g>
				<g>
					<g>
						<path style="fill:#EEA886;" d="M1441.021,1275.471c0,0,20.551,15.166,21.074,17.322c0.523,2.157-0.364,3.222-2.345,1.884
							s-20.279-14.077-20.279-14.077s21.307,22.035,22.122,23.709c0.478,0.98-1.119,3.144-2.245,2.525s-23.493-21.251-23.493-21.251
							s19.856,20.61,20.121,22.214c0.231,1.402-1.731,3.021-3.309,1.594c-1.578-1.428-21.089-19.516-21.089-19.516
							s13.509,15.91,12.934,17.398c-0.353,0.91-1.645,2.844-5.002-1.37c-3.358-4.215-12.322-13.325-12.322-13.325L1441.021,1275.471
							z"/>
					</g>
				</g>
			</g>
			<path style="fill:#E64646;" d="M1388.2,1191.522c0,0,0.678,46.112-2.136,68.353l-1.248-61.111L1388.2,1191.522z"/>
			<g>
				<path style="fill:#E64646;" d="M1285.778,1116.354c0,0,5.101,1.113,13.604,10.224c8.503,9.11,12.755,24.093,14.982,28.952
					s30.369,49.805,31.989,50.817s25.054,17.105,38.012,29.455c12.958,12.351,37.075,27.104,37.075,27.104l-12.375,18.373
					c0,0-67.669-37.478-78.402-51.751c-11.464-15.245-52.337-60.007-52.337-60.007S1252.324,1128.58,1285.778,1116.354z"/>
			</g>
			<g>
				<g>
					<path style="fill:#DB9C7C;" d="M1439.626,1375.234c0,0-2.64-10.262-5.938-11.794c-3.3-1.532-2.557,2.223-2.557,2.223
						s-0.671-3.725-3.742-3.517c-3.071,0.207-1.963,4.559-1.963,4.559s-1.279-2.69-4.193-1.38c-2.915,1.311-1.162,4.716-1.162,4.716
						s-3.94-2.81-4.887,1.018c-1.599,6.462,3.418,12.444,3.418,12.444s1.347,1.325,4.061-0.128c0,0,3.084,3.483,6.658-0.402
						c0,0,5.193,1.401,5.7-2.951C1435.021,1380.021,1440.638,1381.193,1439.626,1375.234z"/>
				</g>
			</g>
			<path style="fill:#9C2F2F;" d="M1331.443,1240.324l-23.166-37.378c0,0,19.752,23.323,21.811,25.825
				c2.058,2.503,2.232,2.688,2.232,2.688S1331.719,1239.05,1331.443,1240.324z"/>
		</g>
		<path style="opacity:0.73;fill:#6BB0FF;" d="M1505.994,919.969v740.014c0,19.866-16.104,35.97-35.988,35.97h-277.841
			c-19.867,0-35.988-16.104-35.988-35.97V919.969c0-19.884,16.121-35.988,35.988-35.988h277.841
			C1489.89,883.981,1505.994,900.085,1505.994,919.969z"/>
		<g>
			<g>
				<g>
					<g>
						<path style="fill:#EEA886;" d="M1425.72,1340.523c0,0,3.045,2.911,4.097,5.629c0.833,2.15,3.616,4.998,4.935,6.623
							c1.317,1.626,6.232,9.233,6.934,11.35c0.287,0.865-0.093,6.845,0.686,8.542c0.777,1.697,2.781,4.95,1.265,5.56
							c-1.517,0.61-4.125-1.826-4.125-1.826s0.612,1.588-0.55,2.527c-2.259,1.826-3.939,1.094-3.939,1.094s-0.451,2.014-1.588,2.542
							c-2.507,1.163-4.112,0.409-4.112,0.409s-0.886,1.28-2.732,1.683c-2.361,0.515-3.926-1.28-3.926-1.28s-2.803,1.312-4.061,0.128
							c-1.258-1.184-1.531-2.7-2.247-3.874c-0.716-1.173-3.681-12.605-2.153-21.71s-5.584-15.933-5.584-15.933L1425.72,1340.523z"/>
					</g>
				</g>
			</g>
			<g>
				<path style="fill:#0E1E2B;" d="M1414.915,1374.407v-0.034c-0.034-0.035-0.034-0.035-0.034-0.035s0,0,0.034-0.034
					c-0.034-0.035-0.034-0.069-0.034-0.104c0-0.034-0.036-0.069-0.036-0.104c-0.173-0.867-0.346-1.804-0.485-2.845h-2.81
					c-2.011,0-3.78,0.798-5.099,2.081c-0.277,0.313-0.555,0.625-0.832,0.972c1.422,5.55,2.636,10.301,3.538,13.908v-9.712
					c0-1.318,1.076-2.393,2.393-2.393h3.746C1415.158,1375.587,1415.019,1375.031,1414.915,1374.407z M1414.915,1374.407v-0.034
					c-0.034-0.035-0.034-0.035-0.034-0.035s0,0,0.034-0.034c-0.034-0.035-0.034-0.069-0.034-0.104c0-0.034-0.036-0.069-0.036-0.104
					c-0.173-0.867-0.346-1.804-0.485-2.845h-2.81c-2.011,0-3.78,0.798-5.099,2.081c-0.277,0.313-0.555,0.625-0.832,0.972
					c1.422,5.55,2.636,10.301,3.538,13.908v-9.712c0-1.318,1.076-2.393,2.393-2.393h3.746
					C1415.158,1375.587,1415.019,1375.031,1414.915,1374.407z M1414.915,1374.407v-0.034c-0.034-0.035-0.034-0.035-0.034-0.035
					s0,0,0.034-0.034c-0.034-0.035-0.034-0.069-0.034-0.104c0-0.034-0.036-0.069-0.036-0.104c-0.173-0.867-0.346-1.804-0.485-2.845
					h-2.81c-2.011,0-3.78,0.798-5.099,2.081c-0.277,0.313-0.555,0.625-0.832,0.972c1.422,5.55,2.636,10.301,3.538,13.908v-9.712
					c0-1.318,1.076-2.393,2.393-2.393h3.746C1415.158,1375.587,1415.019,1375.031,1414.915,1374.407z M1414.915,1374.407v-0.034
					c-0.034-0.035-0.034-0.035-0.034-0.035s0,0,0.034-0.034c-0.034-0.035-0.034-0.069-0.034-0.104c0-0.034-0.036-0.069-0.036-0.104
					c-0.173-0.867-0.346-1.804-0.485-2.845h-2.81c-2.011,0-3.78,0.798-5.099,2.081c-0.277,0.313-0.555,0.625-0.832,0.972
					c1.422,5.55,2.636,10.301,3.538,13.908v-9.712c0-1.318,1.076-2.393,2.393-2.393h3.746
					C1415.158,1375.587,1415.019,1375.031,1414.915,1374.407z M1414.915,1374.407v-0.034c-0.034-0.035-0.034-0.035-0.034-0.035
					s0,0,0.034-0.034c-0.034-0.035-0.034-0.069-0.034-0.104c0-0.034-0.036-0.069-0.036-0.104c-0.173-0.867-0.346-1.804-0.485-2.845
					h-2.81c-2.011,0-3.78,0.798-5.099,2.081c-0.277,0.313-0.555,0.625-0.832,0.972c1.422,5.55,2.636,10.301,3.538,13.908v-9.712
					c0-1.318,1.076-2.393,2.393-2.393h3.746C1415.158,1375.587,1415.019,1375.031,1414.915,1374.407z M1414.915,1374.407v-0.034
					c-0.034-0.035-0.034-0.035-0.034-0.035s0,0,0.034-0.034c-0.034-0.035-0.034-0.069-0.034-0.104c0-0.034-0.036-0.069-0.036-0.104
					c-0.173-0.867-0.346-1.804-0.485-2.845h-2.81c-2.011,0-3.78,0.798-5.099,2.081c-0.277,0.313-0.555,0.625-0.832,0.972
					c1.422,5.55,2.636,10.301,3.538,13.908v-9.712c0-1.318,1.076-2.393,2.393-2.393h3.746
					C1415.158,1375.587,1415.019,1375.031,1414.915,1374.407z M1414.915,1374.407v-0.034c-0.034-0.035-0.034-0.035-0.034-0.035
					s0,0,0.034-0.034c-0.034-0.035-0.034-0.069-0.034-0.104c0-0.034-0.036-0.069-0.036-0.104c-0.173-0.867-0.346-1.804-0.485-2.845
					h-2.81c-2.011,0-3.78,0.798-5.099,2.081c-0.277,0.313-0.555,0.625-0.832,0.972c1.422,5.55,2.636,10.301,3.538,13.908v-9.712
					c0-1.318,1.076-2.393,2.393-2.393h3.746C1415.158,1375.587,1415.019,1375.031,1414.915,1374.407z M1450.849,1371.251h-39.298
					c-2.011,0-3.78,0.798-5.099,2.081c-0.277,0.313-0.555,0.625-0.832,0.972c-0.833,1.179-1.318,2.636-1.318,4.196v24.8
					c0,3.988,3.26,7.249,7.249,7.249h39.298c3.989,0,7.249-3.261,7.249-7.249v-24.8
					C1458.098,1374.512,1454.838,1371.251,1450.849,1371.251z M1453.241,1403.3c0,1.317-1.074,2.358-2.393,2.358h-39.298
					c-1.317,0-2.393-1.041-2.393-2.358v-24.8c0-1.318,1.076-2.393,2.393-2.393h39.298c1.318,0,2.393,1.074,2.393,2.393V1403.3z
					 M1414.915,1374.407v-0.034c-0.034-0.035-0.034-0.035-0.034-0.035s0,0,0.034-0.034c-0.034-0.035-0.034-0.069-0.034-0.104
					c0-0.034-0.036-0.069-0.036-0.104c-0.173-0.867-0.346-1.804-0.485-2.845h-2.81c-2.011,0-3.78,0.798-5.099,2.081
					c-0.277,0.313-0.555,0.625-0.832,0.972c1.422,5.55,2.636,10.301,3.538,13.908v-9.712c0-1.318,1.076-2.393,2.393-2.393h3.746
					C1415.158,1375.587,1415.019,1375.031,1414.915,1374.407z M1414.915,1374.407v-0.034c-0.034-0.035-0.034-0.035-0.034-0.035
					s0,0,0.034-0.034c-0.034-0.035-0.034-0.069-0.034-0.104c0-0.034-0.036-0.069-0.036-0.104c-0.173-0.867-0.346-1.804-0.485-2.845
					h-2.81c-2.011,0-3.78,0.798-5.099,2.081c-0.277,0.313-0.555,0.625-0.832,0.972c1.422,5.55,2.636,10.301,3.538,13.908v-9.712
					c0-1.318,1.076-2.393,2.393-2.393h3.746C1415.158,1375.587,1415.019,1375.031,1414.915,1374.407z M1414.915,1374.407v-0.034
					c-0.034-0.035-0.034-0.035-0.034-0.035s0,0,0.034-0.034c-0.034-0.035-0.034-0.069-0.034-0.104c0-0.034-0.036-0.069-0.036-0.104
					c-0.173-0.867-0.346-1.804-0.485-2.845h-2.81c-2.011,0-3.78,0.798-5.099,2.081c-0.277,0.313-0.555,0.625-0.832,0.972
					c1.422,5.55,2.636,10.301,3.538,13.908v-9.712c0-1.318,1.076-2.393,2.393-2.393h3.746
					C1415.158,1375.587,1415.019,1375.031,1414.915,1374.407z M1414.915,1374.407v-0.034c-0.034-0.035-0.034-0.035-0.034-0.035
					s0,0,0.034-0.034c-0.034-0.035-0.034-0.069-0.034-0.104c0-0.034-0.036-0.069-0.036-0.104c-0.173-0.867-0.346-1.804-0.485-2.845
					h-2.81c-2.011,0-3.78,0.798-5.099,2.081c-0.277,0.313-0.555,0.625-0.832,0.972c1.422,5.55,2.636,10.301,3.538,13.908v-9.712
					c0-1.318,1.076-2.393,2.393-2.393h3.746C1415.158,1375.587,1415.019,1375.031,1414.915,1374.407z M1414.915,1374.407v-0.034
					c-0.034-0.035-0.034-0.035-0.034-0.035s0,0,0.034-0.034c-0.034-0.035-0.034-0.069-0.034-0.104c0-0.034-0.036-0.069-0.036-0.104
					c-0.173-0.867-0.346-1.804-0.485-2.845h-2.81c-2.011,0-3.78,0.798-5.099,2.081c-0.277,0.313-0.555,0.625-0.832,0.972
					c1.422,5.55,2.636,10.301,3.538,13.908v-9.712c0-1.318,1.076-2.393,2.393-2.393h3.746
					C1415.158,1375.587,1415.019,1375.031,1414.915,1374.407z M1414.915,1374.407v-0.034c-0.034-0.035-0.034-0.035-0.034-0.035
					s0,0,0.034-0.034c-0.034-0.035-0.034-0.069-0.034-0.104c0-0.034-0.036-0.069-0.036-0.104c-0.173-0.867-0.346-1.804-0.485-2.845
					h-2.81c-2.011,0-3.78,0.798-5.099,2.081c-0.277,0.313-0.555,0.625-0.832,0.972c1.422,5.55,2.636,10.301,3.538,13.908v-9.712
					c0-1.318,1.076-2.393,2.393-2.393h3.746C1415.158,1375.587,1415.019,1375.031,1414.915,1374.407z"/>
			</g>
			<g>
				<rect x="1357.445" y="1399.891" style="fill:#292C47;" width="147.501" height="105.68"/>
			</g>
			<g>
				<path style="fill:#EEA886;" d="M1368.32,1117.264c0,0-7.331-0.053-10.554,22.539c-3.223,22.591,2.884,32.033,3.611,41.435
					c0.728,9.4,11.757,70.118,12.056,72.802c0.299,2.685,1.779,34.997,6.079,43.572c4.3,8.575,35.91,57.177,36.333,59.604
					c0.423,2.426,15.349-8.467,15.349-8.467s-24.834-51.984-26.274-57.916c-1.44-5.932-11.436-36.219-9.855-45.465
					s-4.426-60.246-3.845-65.923C1391.801,1173.769,1382.798,1120.711,1368.32,1117.264z"/>
			</g>
			<g>
				<path style="fill:#E64646;" d="M1368.544,1117.104c0,0-7.555,0.107-10.778,22.699c-3.223,22.591-0.31,30.725,1.639,40.518
					c1.841,9.248,8.108,65.82,8.408,68.505s7.8,36.789,11.7,48.786c2.966,9.123,31.153,56.887,31.576,59.313
					c0.423,2.427,21.914-11.159,21.914-11.159s-27.56-53.771-29-59.702s-6.106-26.464-6.256-35.843
					c-0.176-11.018-7.107-65.099-6.526-70.775C1391.801,1173.769,1389.627,1124.83,1368.544,1117.104z"/>
			</g>
			<path style="fill:#EDDAD3;" d="M1394.589,1628.371c0,0,2.278,5.385,6.579,10.997c3.154,4.115,12.961,21.012,17.281,22.19
				c4.32,1.178,17.674,3.534,18.853,10.996c1.178,7.463,1.767,12.765-11.39,13.354c-13.157,0.589-21.797,1.375-28.082-7.855
				c-6.284-9.229-16.299-15.906-16.299-15.906v24.082h-5.105c0,0-2.356-25.063-3.731-26.831c-1.375-1.767-4.909-21.012,7.266-31.026
				C1392.134,1618.356,1394.589,1628.371,1394.589,1628.371z"/>
			<path style="fill:#EEA886;" d="M1347.767,1331.364c0,4.509-2.185,14.29-5.48,26.603c-1.838-19.7-4.683-40.269-7.769-60.351
				c-0.729-4.925-1.491-9.815-2.254-14.671c-0.243-1.388-0.451-2.74-0.66-4.128c-0.555-3.399-1.075-6.798-1.629-10.128
				c1.699,2.115,3.261,4.544,4.717,7.145c1.214,2.289,2.358,4.718,3.399,7.25c1.908,4.647,3.469,9.607,4.752,14.566
				C1346.379,1311.282,1347.767,1324.878,1347.767,1331.364z"/>
			<path style="fill:#EEA886;" d="M1418.419,1426.364c0,14.221-5.272,37.044-5.272,37.044l-4.752,42.176l-13.805,122.782h-14.637
				c0,0,0-0.139-0.069-0.45c-0.66-7.146-9.226-96.631-10.613-115.291c-0.174-2.22-0.174-4.578-0.035-7.041
				c1.11-19.007,10.267-43.391,7.666-50.709c-0.902-2.497-5.549-12.833-11.584-26.082c-2.462-5.342-5.133-11.169-7.873-17.169
				c-4.509-9.712-9.192-19.84-13.423-28.927c-0.347-8.012-0.937-16.302-1.734-24.73c-1.838-19.7-4.683-40.269-7.769-60.351
				c-0.729-4.925-1.491-9.815-2.254-14.671c-0.243-1.388-0.451-2.74-0.66-4.128c0.937-1.075,1.978-2.081,3.087-2.983
				c7.457-6.069,19.181-8.15,37.147-3.121c0.417,0.069,0.833,0.208,1.249,0.348c0.624,0.173,1.248,0.346,1.872,0.555
				c1.11,0.347,2.255,0.729,3.435,1.145c0.52,0.139,1.04,0.347,1.561,0.52c0,0,1.353,5.203,3.538,13.458
				c0,0,0.069,0.208,0.174,0.624c0.103,0.313,0.207,0.764,0.346,1.283c0.937,3.711,2.047,7.943,3.225,12.557
				c1.076,4.058,2.186,8.358,3.365,12.867v0.035c0.555,2.185,1.144,4.404,1.734,6.624v0.035
				c4.647,17.862,9.676,37.251,13.284,51.541c1.422,5.55,2.636,10.301,3.538,13.908c0.59,2.497,1.076,4.439,1.353,5.688
				c0.451,2.046,0.937,4.058,1.422,6c0.555,2.012,1.076,3.92,1.595,5.758c0.451,1.63,0.902,3.19,1.318,4.682
				c0.036,0.07,0.036,0.104,0.036,0.174l0.034,0.035C1416.857,1417.313,1418.419,1422.792,1418.419,1426.364z"/>
			<path style="fill:#EEA886;" d="M1418.448,1661.559c0,0-11.782,2.945-16.299,0c-4.517-2.946-19.871-28.898-24.958-30.454
				c0,0,4.928-9.999,17.397-2.733C1394.589,1628.371,1415.11,1657.238,1418.448,1661.559z"/>
			<path style="fill:#1D3B54;" d="M1414.881,1410.514c0,0,0,0-0.036,0.035c-0.901,0.485-17.758,10.162-49.529,18.244
				c-2.532,0.658-5.168,1.317-7.873,1.907c-4.995,1.179-10.302,2.255-15.92,3.261c2.775-14.707,3.329-32.257,2.497-51.264
				c-0.347-8.012-0.937-16.302-1.734-24.73c-1.838-19.7-4.683-40.269-7.769-60.351c-0.729-4.925-1.491-9.815-2.254-14.671
				c1.942,0,3.884,0.069,5.827,0.139c12.313,0.59,24.036,2.081,32.5,3.364c2.254,0.382,4.3,0.693,6.034,1.006h0.139
				c0.382,0.104,0.764,0.139,1.11,0.208c3.538,0.624,5.619,1.075,5.619,1.075s0.069,0.208,0.174,0.624
				c0.103,0.313,0.207,0.764,0.346,1.283c0.693,2.359,1.908,6.694,3.503,12.383c1.18,4.231,2.567,9.156,4.058,14.602v0.035
				c0.659,2.358,1.318,4.821,2.046,7.354c0,0.034,0,0.034,0,0.068c4.093,15.088,8.845,32.673,12.833,48.246
				c0.937,3.746,1.873,7.354,2.706,10.822c1.458,5.861,2.706,11.203,3.711,15.746c0.451,2.116,0.833,4.059,1.179,5.758
				c0.347,1.804,0.625,3.364,0.798,4.682C1414.881,1410.41,1414.881,1410.444,1414.881,1410.514z"/>
			<g>
				<path style="fill:#EDDAD3;" d="M1391.226,1181.666v0.104c0,0,0,0.034,0,0.069v0.104c-1.179,3.364-2.601,6.798-4.162,10.439
					c-1.006,2.324-1.734,4.439-2.255,6.382c-3.122,11.793,1.388,17.793-1.387,31.875c-0.208,1.145-0.452,2.358-0.66,3.677
					c-0.138,0.833-0.277,1.734-0.416,2.636c-1.11,7.006-2.081,15.643-2.879,24.002c-0.068,1.006-0.173,2.012-0.243,3.018
					c-0.346,3.746-0.624,7.422-0.832,10.787c-0.313,5.133-0.521,9.642-0.521,12.902c0,1.283,0,2.358,0.069,3.226
					c0.035,0.277-0.035,0.521-0.173,0.798c-0.035,0.069-0.035,0.104-0.104,0.173c-0.833,1.388-3.711,2.532-7.979,3.469
					c-6.451,1.388-16.093,2.22-26.845,2.323c-2.706,0.07-5.48,0.035-8.325-0.034c-0.729-4.925-1.491-9.815-2.254-14.671
					c-0.243-1.388-0.451-2.74-0.66-4.128c-0.555-3.399-1.075-6.798-1.629-10.128c-0.312-2.012-0.625-3.988-0.937-5.966
					c-1.942-12.243-3.781-23.967-5.272-34.753c-0.382-2.74-0.728-5.377-1.075-7.979c0-0.139-0.035-0.277-0.035-0.381
					c-0.208-1.734-0.417-3.399-0.624-5.029c-0.798-6.833-1.388-13.146-1.734-18.868c-0.625-10.44-0.174-19.354,0.901-27.123
					c0.036-0.382,0.105-0.764,0.174-1.11c1.699-11.758,4.787-20.949,7.735-29.135c0.381-1.109,0.762-2.186,1.144-3.226
					c0-0.035,0-0.035,0-0.035c0.728-1.977,1.388-3.884,2.012-5.792c0.174-0.485,0.347-0.937,0.485-1.422
					c0.556-1.63,1.041-3.261,1.492-4.891c1.248-4.752,2.08-9.538,2.011-14.74c3.503,0.034,7.041,0.277,10.128,0.728
					c0,0,2.081,0.972,4.96,2.255c0.104,0.069,0.208,0.104,0.277,0.139c0.971,0.416,2.046,0.901,3.122,1.353
					c0.833,0.382,1.63,0.729,2.462,1.041l0.035,0.034c0.52,0.208,1.041,0.416,1.561,0.625c2.845,1.145,5.55,2.115,7.215,2.462
					c0.382,0.069,0.798,0.277,1.317,0.624c0,0,0,0,0.035,0h0.034c2.706,1.699,7.146,6.486,11.689,12.175l0.035,0.034
					c1.769,2.186,3.572,4.544,5.237,6.902c0,0,0,0.035,0.035,0.035c4.162,5.723,7.77,11.411,9.365,15.156
					c0.173,0.417,0.346,0.833,0.485,1.249C1396.775,1160.231,1395.284,1170.047,1391.226,1181.666z"/>
			</g>
			<g>
				<path style="fill:#D6C5BE;" d="M1351.032,1141.458l8.858-10.372l-7.691-27.308
					C1352.198,1103.778,1349.614,1118.985,1351.032,1141.458z"/>
			</g>
			<g>
				<path style="fill:#EEA886;" d="M1352.726,1098.008c-0.035,0.035-0.069,0.035-0.104,0.035c-3.988,1.179-8.185,1.109-12.278-0.417
					c-2.115-0.798-4.162-1.804-6.104-2.982c-0.036-0.174-0.105-0.347-0.139-0.521c-0.208-0.693-0.417-1.422-0.659-2.15
					c-1.7-5.237-2.776-10.926-3.365-16.821c-0.208-2.221-0.381-4.51-0.485-6.799c-0.173-4.196-0.139-8.463,0.07-12.659
					c-0.035-0.035-0.035-0.07-0.07-0.139c0,0,0.035-0.035,0.07-0.035c0.312-7.18,1.11-14.256,2.081-20.846
					c0.728-5.029,1.595-9.746,2.498-13.978v-0.034c1.561-7.7,3.156-13.874,4.196-17.481c12.833-1.353,31.597,2.22,37.355,31.667
					c0.069,0.277,0.139,0.555,0.173,0.832C1381.965,1068.214,1368.786,1093.221,1352.726,1098.008z"/>
			</g>
			<g>
				<path style="fill:#252E3B;" d="M1375.965,1035.68c-0.034-0.277-0.104-0.555-0.173-0.832c-1.18-4.267-5.967-9.92-5.967-9.92
					c-9.677,16.684-29.689,25.563-40.164,30.592c0.312-7.18,1.11-14.256,2.081-20.846c0.728-5.029,1.595-9.746,2.498-13.978
					c-0.036-0.034,0-0.034,0-0.034c1.561-7.7,3.156-13.874,4.196-17.481c0.52-2.046,0.901-3.261,1.006-3.538
					c1.109-0.034,2.289-0.034,3.468,0C1377.526,1000.857,1375.965,1035.68,1375.965,1035.68z"/>
			</g>
			<g>
				<path style="fill:#252E3B;" d="M1332.783,1031.969c-0.313,0.937-0.659,1.838-1.041,2.705c0.728-5.029,1.595-9.746,2.498-13.978
					C1334.482,1024.373,1334.032,1028.188,1332.783,1031.969z"/>
			</g>
			<g>
				<path style="fill:#EEA886;" d="M1353.316,1092.146c0,0-0.243,2.323-0.59,5.861c0,0,0,0,0,0.035l-0.382,3.919
					c-0.034,0.589-0.103,1.179-0.138,1.804v0.034c0,0.035,0,0.035-0.035,0.069c0,0.104,0,0.208-0.035,0.313
					c-0.173,2.289-0.382,4.717-0.521,7.18c-0.52,6.382-0.832,12.764-0.589,16.232c0,0-0.139,0.139-0.417,0.381
					c-1.04,0.867-4.023,2.983-8.22,3.122c-2.498,0.069-5.446-0.555-8.671-2.602l-0.104-0.069c-0.312-0.173-0.589-0.347-0.867-0.555
					c0.556-1.63,1.041-3.261,1.492-4.891c1.248-4.752,2.08-9.538,2.011-14.74c-0.035-3.607-0.485-7.423-1.491-11.585
					c-0.139-0.659-0.313-1.318-0.52-2.012c-0.036-0.174-0.105-0.347-0.139-0.521c-0.208-0.693-0.417-1.422-0.659-2.15
					c-1.7-5.237-2.776-10.926-3.365-16.821C1339.893,1080.7,1353.316,1092.146,1353.316,1092.146z"/>
			</g>
			<g>
				<polygon style="fill:#EEA886;" points="1351.032,1127.59 1351.032,1141.458 1333.6,1128.432 				"/>
			</g>
			<g>
				<path style="fill:#D6C5BE;" d="M1351.027,1141.467l-9.434-6.104l-9.33-6.07c0.174-0.485,0.347-0.937,0.485-1.422
					c0.556-1.63,1.041-3.261,1.492-4.891l5.203,5.168l2.948,2.948l1.388,1.388L1351.027,1141.467z"/>
			</g>
			<g>
				<path style="fill:#E64646;" d="M1335.801,1190.615c0,0.381-0.035,0.797-0.069,1.214c-0.833,11.134-1.908,23.794-3.122,36.626
					c-0.104,0.972-0.173,1.978-0.312,2.983c-0.243,2.948-0.555,5.896-0.867,8.845v0.035c-0.764,7.63-1.562,15.191-2.394,22.405
					c-1.942-12.243-3.781-23.967-5.272-34.753c-0.382-2.74-0.728-5.377-1.075-7.979c0-0.139-0.035-0.277-0.035-0.381
					c-0.208-1.734-0.417-3.399-0.624-5.029c-0.798-6.833-1.388-13.146-1.734-18.868c-0.625-10.44-0.174-19.354,0.901-27.123
					c0.036-0.382,0.105-0.764,0.174-1.11c1.699-11.758,4.787-20.949,7.735-29.135c0.381-1.109,0.762-2.186,1.144-3.226
					c1.63,3.226,3.122,6.451,4.335,9.469c1.595,4.023,2.671,7.734,2.879,10.648
					C1337.778,1159.643,1337.118,1173.169,1335.801,1190.615z"/>
			</g>
			<g>
				<path style="fill:#E64646;" d="M1395.502,1156.843c0,0,3.692,13.059-10.686,41.921c0,0,0.229,36.939,0.634,48.48
					c0.405,11.54,3.138,55.17,3.138,55.17l-14.217,8.328c-2.864,1.677-6.41-0.649-6.011-3.944
					c4.026-33.209,17.125-159.181-11.169-193.041l11.354,3.347C1368.544,1117.104,1388.717,1133.61,1395.502,1156.843z"/>
			</g>
			<g>
				<path style="fill:#EEA886;" d="M1329.592,1068.353c-0.173-4.196-0.139-8.463,0.07-12.659
					C1332.089,1063.497,1331.431,1067.174,1329.592,1068.353z"/>
			</g>
			<g>
				<polygon style="fill:#FAE6DE;" points="1359.89,1131.086 1371.05,1134.17 1352.198,1103.778 				"/>
			</g>
			<g>
				<path style="fill:#FAE6DE;" d="M1343.778,1132.484l-1.734,2.254l-0.451,0.625l-7.006,9.226l-0.971,1.283l-4.508-7.526
					c0.381-1.109,0.762-2.186,1.144-3.226c0-0.035,0-0.035,0-0.035c0.728-1.977,1.388-3.884,2.012-5.792
					c0.174-0.485,0.347-0.937,0.485-1.422c0.556-1.63,1.041-3.261,1.492-4.891l5.203,5.168l2.948,2.948L1343.778,1132.484z"/>
			</g>
			<g>
				<path style="fill:#A77860;" d="M1352.726,1098.043l-0.382,3.919l-0.138,1.317c0,0-7.041,1.388-17.446-6.624
					c-0.139-0.659-0.313-1.318-0.52-2.012c-0.036-0.174-0.105-0.347-0.139-0.521c4.751,2.671,11.064,4.787,18.521,3.92H1352.726z"/>
			</g>
			<g>
				<g>
					<g>
						<path style="fill:#EEA886;" d="M1414.683,1261.742c0,0,7.08,4.561,11.153,2.012c3.464-2.169,9.507-2.47,11.367-2.565
							c2.488-0.128,9.979-3.367,10.172-0.231c0.193,3.137-12.091,5.935-14.55,7.036c-2.459,1.101,8.368,6.388,9.586,8.912
							c1.219,2.524-8.554,19.96-15.564,15.472c-7.01-4.487-11.538-13.91-12.927-14.454c-1.389-0.545-5.23-3.063-5.23-3.063
							L1414.683,1261.742z"/>
					</g>
				</g>
			</g>
			<g>
				<path style="fill:#EEA886;" d="M1426.916,1268.897l-9.538,13.389c0,0-0.034-0.035-0.138-0.069
					c-0.521-0.277-2.879-1.526-6.451-3.504c-2.602-1.422-5.896-3.226-9.608-5.341c-0.485-0.243-0.97-0.521-1.457-0.798
					c-4.058-2.255-8.602-4.855-13.354-7.596c-2.254-1.318-4.578-2.671-6.902-4.023c-1.908-1.145-3.85-2.289-5.792-3.469
					c-0.208-0.104-0.416-0.242-0.624-0.381c-1.354-0.833-2.74-1.665-4.093-2.498c-15.678-9.572-30.522-19.562-36.349-26.152
					c-0.694-0.728-1.249-1.422-1.665-2.08c-1.977-3.018-5.133-7.146-8.913-11.793c-0.798-6.833-1.388-13.146-1.734-18.868
					c-0.625-10.44-0.174-19.354,0.901-27.123c4.371,7.145,9.851,15.92,14.534,23.238c5.063,7.978,9.191,14.151,9.781,14.532
					c0.867,0.556,9.469,7.389,19.249,15.539c1.18,1.006,2.393,2.012,3.642,3.018c2.012,1.734,4.059,3.469,6.07,5.168
					c2.74,2.358,5.411,4.717,7.873,6.867c1.006,0.938,1.978,1.804,2.914,2.637l0.381,0.381c0.625,0.556,1.249,1.11,1.838,1.665
					c0.416,0.382,0.833,0.763,1.214,1.145c1.838,1.769,3.954,3.573,6.208,5.342c0.937,0.728,1.873,1.456,2.844,2.185
					c5.654,4.267,11.896,8.324,17.135,11.55c0.312,0.174,0.624,0.382,0.901,0.556c1.527,0.936,2.983,1.803,4.266,2.531
					C1424.176,1267.406,1426.916,1268.897,1426.916,1268.897z"/>
			</g>
			<g>
				<g>
					<g>
						<path style="fill:#EEA886;" d="M1441.021,1275.471c0,0,20.551,15.166,21.074,17.322c0.523,2.157-0.364,3.222-2.345,1.884
							s-20.279-14.077-20.279-14.077s21.307,22.035,22.122,23.709c0.478,0.98-1.119,3.144-2.245,2.525s-23.493-21.251-23.493-21.251
							s19.856,20.61,20.121,22.214c0.231,1.402-1.731,3.021-3.309,1.594c-1.578-1.428-21.089-19.516-21.089-19.516
							s13.509,15.91,12.934,17.398c-0.353,0.91-1.645,2.844-5.002-1.37c-3.358-4.215-12.322-13.325-12.322-13.325L1441.021,1275.471
							z"/>
					</g>
				</g>
			</g>
			<path style="fill:#E64646;" d="M1388.2,1191.522c0,0,0.678,46.112-2.136,68.353l-1.248-61.111L1388.2,1191.522z"/>
			<g>
				<path style="fill:#E64646;" d="M1421.436,1262.897l-0.902,1.353l-0.486,0.693l-8.046,11.967l-1.214,1.803l-1.734,2.567
					c0,0-2.671-1.491-7.041-3.954c-0.381-0.208-0.763-0.451-1.179-0.659c-3.851-2.22-8.775-5.063-14.291-8.324
					c-2.358-1.388-4.821-2.844-7.319-4.37c-1.768-1.041-3.537-2.116-5.306-3.191c-0.382-0.242-0.729-0.451-1.076-0.658
					c-1.041-0.66-2.081-1.284-3.121-1.908c-15.4-9.572-30.974-19.979-37.39-26.741c0,0,0,0-0.035-0.035
					c-0.069-0.104-0.208-0.243-0.451-0.521c-0.451-0.485-0.833-0.937-1.18-1.387c-0.172-0.243-0.381-0.486-0.589-0.764
					c-0.069-0.069-0.139-0.173-0.242-0.277c-1.838-2.428-4.335-5.48-7.18-8.879c-0.208-1.734-0.417-3.399-0.624-5.029
					c-0.798-6.833-1.388-13.146-1.734-18.868c-0.625-10.44-0.174-19.354,0.901-27.123c0.036-0.382,0.105-0.764,0.174-1.11
					c4.231,6.938,9.677,15.712,14.429,23.135c5.446,8.532,9.919,15.365,10.543,15.746c0.937,0.59,8.949,6.07,18.106,12.938
					c1.109,0.867,2.254,1.77,3.434,2.671c2.219,1.7,4.474,3.468,6.659,5.272c2.914,2.393,5.723,4.786,8.22,7.075
					c0.556,0.485,1.075,1.006,1.596,1.491c0.277,0.243,0.555,0.521,0.833,0.764c0.139,0.139,0.242,0.242,0.381,0.347
					c0.659,0.624,1.353,1.249,2.047,1.804c2.323,2.08,4.89,4.127,7.526,6.139c0.798,0.625,1.596,1.249,2.428,1.838
					C1409.262,1255.44,1421.436,1262.897,1421.436,1262.897z"/>
			</g>
			<g>
				<g>
					<path style="fill:#DB9C7C;" d="M1439.626,1375.234c0,0-2.64-10.262-5.938-11.794c-3.3-1.532-2.557,2.223-2.557,2.223
						s-0.671-3.725-3.742-3.517c-3.071,0.207-1.963,4.559-1.963,4.559s-1.279-2.69-4.193-1.38c-2.915,1.311-1.162,4.716-1.162,4.716
						s-3.94-2.81-4.887,1.018c-1.599,6.462,3.245,12.534,3.245,12.534s1.512,1.454,4.227,0c0,0,3.156,3.447,6.729-0.438
						c0,0,5.297,1.45,5.804-2.902C1435.188,1380.252,1441.197,1381.146,1439.626,1375.234z"/>
				</g>
			</g>
			<path style="fill:#9C2F2F;" d="M1332.332,1231.474c0,0-0.624,7.457-0.901,8.81l-7.666-12.313
				c-0.382-2.74-0.728-5.377-1.075-7.979c2.879,3.399,5.411,6.417,6.694,7.943c0.173,0.208,0.313,0.382,0.451,0.555
				c0.104,0.104,0.173,0.208,0.242,0.277c0.937,1.11,1.457,1.77,1.769,2.15c0.243,0.277,0.382,0.416,0.451,0.521
				C1332.332,1231.474,1332.332,1231.474,1332.332,1231.474z"/>
			<path style="fill:#6BB0FF;" d="M1329.662,1055.693c-0.035-0.035-0.035-0.07-0.07-0.139c0,0,0.035-0.035,0.07-0.035V1055.693z"/>
		</g>
	</g>
	<g>
		<g>
			<path style="fill:#FFB170;" d="M1690.183,797.57c-3.777,3.753-8.178,5.627-13.2,5.627c-3.111,0-6.034-0.617-8.768-1.855
				c-2.733-1.234-5.111-2.933-7.134-5.097c-2.022-2.163-3.624-4.711-4.8-7.648c-1.179-2.935-1.768-6.102-1.768-9.5
				c0-3.221,0.589-6.258,1.768-9.104c1.176-2.847,2.8-5.342,4.866-7.482c2.067-2.142,4.5-3.84,7.301-5.098
				c2.8-1.259,5.845-1.887,9.134-1.887c4.444,0,8.256,0.926,11.435,2.779c3.177,1.856,5.567,4.349,7.167,7.483l-6.867,5.032
				c-1.199-2.342-2.879-4.129-5.033-5.364c-2.157-1.236-4.501-1.854-7.035-1.854c-2,0-3.833,0.42-5.5,1.259
				c-1.666,0.84-3.09,1.985-4.267,3.442c-1.179,1.456-2.09,3.136-2.733,5.031c-0.646,1.898-0.967,3.907-0.967,6.027
				c0,2.206,0.355,4.271,1.066,6.189c0.711,1.922,1.689,3.587,2.934,5.001c1.244,1.41,2.723,2.525,4.434,3.342
				c1.711,0.817,3.566,1.225,5.566,1.225c4.579,0,8.712-2.139,12.401-6.421v-3.312h-9.534V778.7h17.136v24.167h-7.602V797.57z"/>
			<path style="fill:#FFB170;" d="M1738.52,794.854v8.014h-32.869v-47.01h32.27v8.011h-23.068v11.322h19.936v7.417h-19.936v12.246
				H1738.52z"/>
			<path style="fill:#FFB170;" d="M1781.124,763.868h-15.135v38.999h-9.134v-38.999h-15.135v-8.011h39.403V763.868z"/>
			<path style="fill:#FFB170;" d="M1839.728,802.867v-31.119l-12.202,23.174h-5l-12.201-23.174v31.119h-9.201v-47.01h9.867
				l14.002,26.75l14.135-26.75h9.801v47.01H1839.728z"/>
			<path style="fill:#FFB170;" d="M1878.996,803.197c-3.467,0-6.612-0.671-9.434-2.02c-2.824-1.346-5.246-3.133-7.269-5.363
				c-2.022-2.229-3.589-4.777-4.7-7.645c-1.111-2.872-1.667-5.805-1.667-8.807c0-3.135,0.589-6.135,1.768-9.007
				c1.177-2.867,2.8-5.404,4.866-7.612c2.067-2.209,4.521-3.961,7.368-5.265c2.843-1.301,5.933-1.952,9.267-1.952
				c3.423,0,6.544,0.695,9.368,2.085c2.822,1.39,5.233,3.212,7.233,5.462c2,2.251,3.556,4.811,4.667,7.681
				c1.11,2.869,1.667,5.783,1.667,8.739c0,3.137-0.578,6.125-1.733,8.972c-1.157,2.848-2.757,5.362-4.801,7.55
				c-2.045,2.183-4.489,3.928-7.333,5.229C1885.419,802.546,1882.33,803.197,1878.996,803.197z M1865.262,779.363
				c0,2.029,0.31,3.994,0.933,5.893c0.622,1.896,1.522,3.574,2.7,5.031c1.178,1.457,2.622,2.626,4.334,3.51
				c1.711,0.883,3.656,1.322,5.834,1.322c2.223,0,4.188-0.451,5.9-1.357c1.71-0.903,3.155-2.106,4.334-3.609
				c1.177-1.499,2.066-3.187,2.666-5.063c0.602-1.876,0.901-3.786,0.901-5.728c0-2.029-0.324-3.994-0.967-5.893
				c-0.646-1.899-1.558-3.575-2.733-5.032c-1.179-1.456-2.624-2.617-4.335-3.477c-1.711-0.86-3.634-1.292-5.767-1.292
				c-2.224,0-4.201,0.454-5.934,1.359c-1.734,0.903-3.179,2.095-4.335,3.574c-1.155,1.48-2.033,3.156-2.632,5.032
				C1865.562,775.512,1865.262,777.42,1865.262,779.363z"/>
			<path style="fill:#FFB170;" d="M1909.197,802.867v-47.01h20.936c2.178,0,4.188,0.454,6.034,1.357
				c1.844,0.905,3.433,2.099,4.767,3.574c1.334,1.48,2.378,3.158,3.134,5.032c0.756,1.878,1.134,3.765,1.134,5.662
				c0,3.044-0.768,5.815-2.3,8.311c-1.534,2.492-3.612,4.294-6.234,5.394l10.801,17.679h-10.334l-9.667-15.759h-9.068v15.759
				H1909.197z M1918.398,779.098h11.535c0.844,0,1.633-0.199,2.366-0.596c0.734-0.398,1.366-0.938,1.899-1.622
				c0.535-0.685,0.957-1.491,1.268-2.418c0.311-0.927,0.467-1.918,0.467-2.979c0-1.104-0.178-2.118-0.533-3.045
				c-0.356-0.928-0.834-1.733-1.434-2.417c-0.601-0.685-1.29-1.215-2.067-1.59c-0.778-0.375-1.567-0.563-2.366-0.563h-11.135
				V779.098z"/>
			<path style="fill:#FFB170;" d="M1986.403,794.854v8.014h-32.869v-47.01h32.269v8.011h-23.067v11.322h19.935v7.417h-19.935v12.246
				H1986.403z"/>
		</g>
	</g>
	<g>
		<path style="fill:#FFFFFF;" d="M640.776,177.26h39.934l25.156,73.895l25.156-73.895h40.25l-38.051,101.566l28.301,71.379
			l63.205-173.574h47.166l-90.875,223.258h-36.477l-38.676-93.705l-38.676,93.705h-36.477l-90.246-223.258h46.537l63.518,173.574
			l27.672-71.379L640.776,177.26z"/>
		<path style="fill:#FFFFFF;" d="M947.046,403.033c-13.207,0-25.154-2.256-35.846-6.76c-10.692-4.506-19.811-10.639-27.358-18.396
			c-7.546-7.752-13.363-16.768-17.451-27.043c-4.088-10.268-6.131-21.066-6.131-32.387c0-11.738,1.989-22.799,5.973-33.174
			c3.981-10.377,9.75-19.496,17.295-27.357c7.547-7.861,16.715-14.096,27.514-18.709c10.795-4.609,22.902-6.918,36.32-6.918
			c13.412,0,25.414,2.309,36.004,6.918c10.582,4.613,19.598,10.799,27.043,18.551c7.438,7.758,13.098,16.775,16.98,27.043
			c3.875,10.273,5.816,20.965,5.816,32.074c0,2.727-0.055,5.346-0.156,7.861c-0.109,2.516-0.371,4.613-0.787,6.289H904.911
			c0.629,6.5,2.201,12.264,4.717,17.293c2.516,5.031,5.762,9.332,9.748,12.893c3.979,3.568,8.49,6.289,13.522,8.176
			c5.031,1.887,10.269,2.83,15.723,2.83c8.381,0,16.297-2.043,23.74-6.131c7.439-4.088,12.523-9.482,15.25-16.195l36.162,10.063
			c-6.082,12.578-15.777,22.906-29.086,30.975C981.37,399,965.491,403.033,947.046,403.033z M989.812,303.668
			c-1.051-12.367-5.609-22.271-13.678-29.715c-8.072-7.439-17.875-11.164-29.4-11.164c-5.66,0-10.957,0.998-15.879,2.988
			c-4.93,1.994-9.277,4.77-13.051,8.332c-3.773,3.568-6.869,7.861-9.277,12.893c-2.41,5.031-3.826,10.588-4.244,16.666H989.812z"/>
		<path style="fill:#FFFFFF;" d="M604.614,635.033c-7.971,0-15.408-1.313-22.326-3.93c-6.918-2.619-12.893-6.289-17.922-11.006
			c-5.031-4.717-8.963-10.221-11.793-16.51c-2.83-6.289-4.246-13.207-4.246-20.754c0-7.752,1.731-14.936,5.19-21.539
			c3.459-6.604,8.279-12.209,14.463-16.822c6.184-4.609,13.572-8.225,22.17-10.85c8.594-2.617,18.025-3.93,28.301-3.93
			c7.334,0,14.514,0.629,21.539,1.887c7.021,1.258,13.256,3.041,18.709,5.346v-9.434c0-10.898-3.094-19.285-9.275-25.156
			c-6.186-5.865-15.357-8.805-27.514-8.805c-8.805,0-17.402,1.572-25.785,4.717c-8.387,3.145-16.98,7.758-25.785,13.836
			l-12.891-26.728c21.17-14.041,44.021-21.066,68.547-21.066c23.688,0,42.082,5.816,55.188,17.451
			c13.098,11.635,19.652,28.457,19.652,50.469v51.254c0,4.402,0.785,7.547,2.359,9.434c1.57,1.887,4.137,2.939,7.703,3.145v35.848
			c-7.129,1.465-13.316,2.201-18.553,2.201c-7.968,0-14.099-1.783-18.396-5.346c-4.297-3.563-6.971-8.279-8.016-14.15l-0.945-9.119
			c-7.34,9.645-16.246,16.98-26.727,22.012C627.776,632.518,616.563,635.033,604.614,635.033z M616.563,604.217
			c7.123,0,13.885-1.258,20.281-3.773c6.393-2.516,11.37-5.865,14.936-10.063c4.609-3.561,6.918-7.547,6.918-11.947v-18.867
			c-5.031-1.887-10.484-3.406-16.352-4.56c-5.871-1.148-11.531-1.729-16.98-1.729c-10.902,0-19.809,2.467-26.727,7.389
			c-6.918,4.928-10.377,11.164-10.377,18.709c0,7.131,2.721,13.051,8.176,17.768C601.885,601.859,608.592,604.217,616.563,604.217z"
			/>
		<path style="fill:#FFFFFF;" d="M838.245,503.594c-12.789,0.211-24.213,2.674-34.275,7.391
			c-10.061,4.717-17.295,11.791-21.697,21.225v99.68h-42.135V467.119h38.678v35.217c2.934-5.66,6.391-10.74,10.375-15.25
			c3.98-4.506,8.279-8.436,12.893-11.793c4.609-3.35,9.275-5.92,13.994-7.703c4.715-1.779,9.275-2.672,13.678-2.672
			c2.305,0,4.033,0,5.189,0c1.148,0,2.25,0.107,3.301,0.314V503.594z"/>
		<path style="fill:#FFFFFF;" d="M930.065,635.033c-13.207,0-25.154-2.256-35.846-6.76c-10.691-4.506-19.811-10.639-27.357-18.396
			c-7.547-7.752-13.363-16.768-17.451-27.043c-4.088-10.268-6.131-21.066-6.131-32.387c0-11.738,1.988-22.799,5.973-33.174
			c3.98-10.377,9.75-19.496,17.295-27.357c7.547-7.861,16.715-14.096,27.514-18.709c10.795-4.609,22.902-6.918,36.32-6.918
			c13.412,0,25.414,2.309,36.004,6.918c10.582,4.613,19.598,10.799,27.043,18.551c7.438,7.758,13.098,16.775,16.98,27.043
			c3.875,10.273,5.816,20.965,5.816,32.074c0,2.727-0.055,5.346-0.156,7.861c-0.109,2.516-0.371,4.613-0.787,6.289H887.931
			c0.629,6.5,2.201,12.264,4.717,17.293c2.516,5.031,5.762,9.332,9.748,12.892c3.979,3.568,8.49,6.289,13.521,8.176
			c5.031,1.887,10.27,2.83,15.723,2.83c8.381,0,16.297-2.043,23.74-6.131c7.439-4.088,12.523-9.482,15.25-16.195l36.162,10.063
			c-6.082,12.578-15.777,22.906-29.086,30.975C964.39,631,948.51,635.033,930.065,635.033z M972.831,535.668
			c-1.051-12.367-5.609-22.272-13.678-29.715c-8.072-7.439-17.875-11.164-29.4-11.164c-5.661,0-10.957,0.998-15.879,2.988
			c-4.93,1.994-9.277,4.77-13.051,8.332c-3.773,3.568-6.869,7.861-9.277,12.893c-2.411,5.031-3.826,10.588-4.245,16.666H972.831z"/>
	</g>
	<g>
		<path style="fill:#FFB170;" d="M1297.47,631.889h-42.135v-92.447c0-12.996-2.414-22.586-7.234-28.772
			c-4.824-6.182-11.633-9.277-20.438-9.277c-3.773,0-7.758,0.84-11.949,2.516c-4.195,1.682-8.176,4.039-11.949,7.076
			c-3.773,3.041-7.232,6.656-10.377,10.848c-3.145,4.195-5.455,8.805-6.918,13.836v96.221h-42.135V402.342h42.135v95.277
			c6.076-10.691,14.307-18.916,24.684-24.684c10.377-5.764,21.854-8.647,34.432-8.647c10.691,0,19.389,1.836,26.1,5.502
			c6.707,3.67,11.949,8.545,15.723,14.621c3.773,6.084,6.393,13.002,7.861,20.754c1.465,7.758,2.201,15.723,2.201,23.899V631.889z"
			/>
		<path style="fill:#FFB170;" d="M1334.257,444.164v-41.822h42.137v41.822H1334.257z M1334.257,631.889V467.119h42.137v164.769
			H1334.257z"/>
		<path style="fill:#FFB170;" d="M1512.545,503.594c-12.788,0.211-24.214,2.674-34.276,7.391
			c-10.061,4.717-17.293,11.791-21.695,21.225v99.68h-42.137V467.119h38.678v35.217c2.934-5.66,6.393-10.74,10.377-15.25
			c3.98-4.506,8.277-8.436,12.891-11.793c4.609-3.35,9.277-5.92,13.994-7.703c4.717-1.779,9.275-2.672,13.678-2.672
			c2.304,0,4.035,0,5.189,0c1.15,0,2.25,0.107,3.302,0.314V503.594z"/>
		<path style="fill:#FFB170;" d="M1536.128,444.164v-41.822h42.134v41.822H1536.128z M1536.128,631.889V467.119h42.134v164.769
			H1536.128z"/>
		<path style="fill:#FFB170;" d="M1769.444,631.889h-42.137v-92.447c0-13.207-2.309-22.848-6.918-28.93
			c-4.613-6.078-11.007-9.119-19.182-9.119c-4.197,0-8.49,0.84-12.893,2.516c-4.402,1.682-8.543,4.039-12.42,7.076
			c-3.881,3.041-7.389,6.656-10.533,10.848c-3.145,4.195-5.455,8.805-6.918,13.836v96.221h-42.137V467.119h38.047v30.5
			c6.078-10.479,14.883-18.654,26.414-24.527c11.526-5.865,24.526-8.803,38.992-8.803c10.27,0,18.655,1.887,25.155,5.66
			c6.495,3.772,11.526,8.701,15.095,14.777c3.561,6.084,6.023,13.002,7.389,20.754c1.361,7.758,2.045,15.619,2.045,23.584V631.889z"
			/>
		<path style="fill:#FFB170;" d="M1870.69,632.832c-11.113,0-21.176-2.201-30.186-6.603c-9.016-4.402-16.822-10.426-23.428-18.08
			c-6.602-7.65-11.688-16.51-15.25-26.572c-3.566-10.061-5.345-20.752-5.345-32.072c0-11.949,1.888-23.059,5.661-33.332
			c3.772-10.268,9.01-19.285,15.721-27.043c6.706-7.752,14.779-13.836,24.213-18.236c9.434-4.402,19.81-6.604,31.129-6.604
			c12.785,0,24.004,2.883,33.647,8.647c9.64,5.767,17.608,13.473,23.896,23.111v-28.928h36.791v156.908
			c0,12.156-2.309,23.058-6.917,32.703c-4.613,9.639-10.958,17.814-19.024,24.527c-8.073,6.705-17.718,11.84-28.93,15.406
			c-11.218,3.563-23.425,5.346-36.633,5.346c-18.03,0-33.175-2.986-45.437-8.961c-12.266-5.975-22.797-14.416-31.602-25.313
			l22.953-22.326c6.289,7.752,14.199,13.836,23.742,18.238c9.534,4.402,19.652,6.604,30.343,6.604c6.497,0,12.735-0.895,18.71-2.674
			c5.975-1.783,11.265-4.559,15.881-8.332c4.607-3.773,8.222-8.6,10.847-14.465c2.618-5.871,3.931-12.789,3.931-20.754v-20.754
			c-5.453,9.434-13.104,16.721-22.953,21.856C1892.595,630.268,1882.011,632.832,1870.69,632.832z M1884.843,599.186
			c4.606,0,9.01-0.732,13.207-2.201c4.189-1.463,8.066-3.459,11.633-5.975c3.563-2.516,6.707-5.447,9.434-8.805
			c2.723-3.35,4.82-6.916,6.289-10.689v-39.307c-3.773-9.641-9.699-17.398-17.766-23.269c-8.072-5.865-16.508-8.805-25.313-8.805
			c-6.5,0-12.371,1.416-17.609,4.246c-5.243,2.83-9.748,6.604-13.522,11.32c-3.772,4.717-6.657,10.115-8.646,16.193
			c-1.996,6.082-2.988,12.371-2.988,18.867c0,6.711,1.148,13,3.459,18.867c2.304,5.871,5.502,11.004,9.592,15.406
			c4.086,4.402,8.852,7.861,14.304,10.377C1872.366,597.928,1878.343,599.186,1884.843,599.186z"/>
	</g>
	<g>
		<g>
			<g>
				<g>
					<path style="fill:#1D2033;" d="M1074.513,1667.424c0,0,13.315,8.854,19.378,12.203c6.063,3.349,30.2,5.494,32.469,7.891
						c2.269,2.397,1.012,9.579-3.036,10.104c-4.046,0.526-33.578,1.629-43.264-1.183c-9.686-2.813-28.229,0.076-32.218-1.518
						c-3.989-1.596-0.21-23.353,1.62-28.184C1051.292,1661.906,1074.513,1667.424,1074.513,1667.424z"/>
				</g>
			</g>
		</g>
		<polygon style="fill:#50558A;" points="1051.382,1660.908 1049.461,1666.738 1074.513,1667.424 1073.698,1659.418 		"/>
		<g>
			<g>
				<g>
					<path style="fill:#1D2033;" d="M930.375,1655.279c0,0,10.208,12.308,15.052,17.259c4.845,4.951,27.345,13.945,28.829,16.893
						c1.484,2.948-1.785,9.465-5.812,8.806c-4.027-0.66-32.628-8.094-41.097-13.571s-27.06-8.042-30.422-10.717
						c-3.362-2.674,6.512-22.426,9.653-26.527C909.72,1643.319,930.375,1655.279,930.375,1655.279z"/>
				</g>
			</g>
		</g>
		<polygon style="fill:#50558A;" points="910.094,1642.39 906.578,1647.421 930.375,1655.279 931.896,1647.378 		"/>
		<g>
			<path style="fill:#EEA886;" d="M1119.267,1157.051c0,0,22.47-11.168,24.515-10.596c2.045,0.571,2.504,1.886,0.442,3.021
				c-2.063,1.137-21.435,11.451-21.435,11.451s28.546-8.526,30.329-8.451c1.044,0.044,2.077,2.527,1.023,3.243
				s-28.943,10.874-28.943,10.874s26.666-7.909,28.126-7.372c1.277,0.47,1.682,3.021-0.262,3.75
				c-1.943,0.729-26.345,9.55-26.345,9.55s19.711-4.469,20.673-3.23c0.588,0.757,1.577,2.855-3.539,3.841
				s-16.992,4.649-16.992,4.649L1119.267,1157.051z"/>
		</g>
		<g>
			<g>
				<path style="fill:#EEA886;" d="M1095.215,1174.127c0,0,7.189-4.169,7.022-9.07c-0.141-4.168,2.507-9.754,3.32-11.476
					c1.087-2.303,1.987-10.614,4.688-9.271c2.701,1.343-0.865,13.758-1.129,16.504c-0.264,2.747,9.326-4.444,12.01-4.32
					c2.684,0.123,12.497,17.356,5.401,21.498c-7.096,4.142-17.103,3.66-18.223,4.648c-1.119,0.987-5.057,3.227-5.057,3.227
					L1095.215,1174.127z"/>
			</g>
		</g>
		<g>
			<path style="fill:#FAFAFA;" d="M1019.302,1228.67c5.409,11.664,8.169,13.106,14.442,14.649
				c13.57,3.339,76.867-54.294,76.867-54.294l-13.815-18.126c0,0-15.467,12.042-28.648,20.914
				c-8.158,5.49-24.264,18.895-25.713,17.986c-1.449-0.908-23.003-31.183-24.999-35.53c-1.998-4.354-10.525-37.711-15.582-41.441
				C1001.853,1132.828,984.334,1153.271,1019.302,1228.67z"/>
		</g>
		<g>
			<path style="fill:#292C47;" d="M1004.445,1382.176c0,0-4.772,35.219-9.643,69.041v0.005c-0.929,6.437-1.858,12.817-2.756,18.896
				v0.005c-3.153,21.254-5.949,38.809-7.022,41.917c-3.054,8.85-45.791,141.275-45.791,141.275s-33.242-6.123-34.354-9.743
				c0,0,36.191-138.668,35.779-143.684c-0.417-5.016,4.504-146.459,4.504-146.459S1002.767,1374.042,1004.445,1382.176z"/>
		</g>
		<g>
			<path style="fill:#292C47;" d="M1031.532,1338.315c0,0,30.005,143.835,32.512,154.423
				c2.508,10.587,16.876,172.017,16.876,172.017s-13.755,1.059-37.493,0c0,0-25.934-163.315-28.61-168.39
				c-10.386-19.691-50.381-118.723-55.396-132.374c-5.015-13.652-13.739-26.058-13.739-26.058S980.349,1311.216,1031.532,1338.315z"
				/>
		</g>
		<g>
			<path style="fill:#FAFAFA;" d="M965.556,1108.518c0,0,31.254,23.025,39.927,32.22s27.018,46.199,25.53,57.89
				c-5.699,44.821-3.831,84.374-1.945,114.823c1.449,23.394,3.683,24.759,2.145,25.058c-5.958,1.157-74.771,15.458-86.194,19.08
				c0,0-2.793-70.131,0.829-80.997C949.47,1265.726,933.237,1152.537,965.556,1108.518z"/>
		</g>
		<g>
			<g>
				<path style="fill:#EEA886;" d="M965.557,1108.516c0,0,57.245,60.353,53.666,53.612c-12.76-24.03-21.442-27.967-21.346-32.494
					c0.073-3.462,1.245-13.575,1.416-16.96c0.325-6.434,0.71-11.666,0.71-11.666s-28.576-38.668-27.111-25.35
					C974.354,1088.978,965.557,1108.516,965.557,1108.516z"/>
			</g>
		</g>
		<g>
			<g>
				<path style="fill:#EEA886;" d="M1017.765,1035.361c0,0,8.044,17.987,8.227,22.227c0.184,4.24-0.833,7.514-0.087,12.39
					c0.77,5.042,5.198,15.596,4.729,18.543c-0.567,3.562-8.077,1.846-9.003,7.711c-0.926,5.864-6.165,16.95-8.867,17.22
					c-6.941,0.693-33.761-9.693-35.552-15.232c-1.791-5.541-11.988-36.428-15.094-42.281c-3.106-5.854,46.228-39.106,50.938-29.842
					C1017.765,1035.361,1017.765,1035.361,1017.765,1035.361z"/>
			</g>
		</g>
		<path style="fill:#16202E;" d="M950.141,1050.008c-3.799-15.318,13.847-17.523,13.847-17.523s11.274-13.603,38.846-12.5
			c27.572,1.104,24.004,37.126,24.004,37.126s-19.107-2.515-27.358-0.271c0,0-0.738,15.37,0.226,19.158l-10.405-0.74
			c0,0,0.922-13.646-4.079-14.202c-5-0.557-6.153,28.961-15.327,35.625c0,0-0.128-2.082-1.329-4.104l0,0h0
			c-1.91-3.217-4.886-8.601-7.489-14.914C956.87,1068.821,952.086,1057.853,950.141,1050.008z"/>
		<g>
			<g>
				<path style="fill:#EEA886;" d="M992.198,1064.228c0,0-4.044-10.33-13.061-3.423c-6.558,5.023,0.587,22.46,7.052,22.26
					C992.654,1082.865,995.109,1073.266,992.198,1064.228z"/>
			</g>
		</g>
		<path style="fill:#C48A6F;" d="M975.627,1093.386c0,0,1.455,5.495,2.967,6.759c1.511,1.263,8.868,6.905,21.077,10.503
			l-1.154,10.816C998.516,1121.464,974.754,1112.777,975.627,1093.386z"/>
		<path style="fill:#3D4169;" d="M1032.437,1342.651c0,0-0.587-9.677-1.833-12.418c0,0-50.806,12.896-85.906,18.112
			c0,0-0.47,5.709,0.216,12.291C944.914,1360.637,1021.942,1346.638,1032.437,1342.651z"/>
		<path style="fill:#FAFAFA;" d="M965.557,1109.706l36.065,26.339c0,0,12.569,11.991,21.747,33.339l-63.948-50.588L965.557,1109.706
			z"/>
		<polygon style="fill:#F0F0F0;" points="967.525,1103.65 999.404,1124.635 1001.853,1137.233 964.23,1110.404 		"/>
		<path style="fill:#D44040;" d="M1001.853,1137.233c0,0,25.684,47.737,26.429,93.175c0.693,42.287,2.387,71.509,2.387,71.509
			l4.069,11.422l3.477-13.656c0,0-0.663-49.245-1.49-71.592c-0.827-22.347-11.349-64.28-32.775-93.214L1001.853,1137.233z"/>
		<path style="fill:#D44040;" d="M1001.853,1137.233c0,0,1.289,1.093,3.027,1.243c1.738,0.152,4.035-2.752-5.476-13.842
			L1001.853,1137.233z"/>
		<path style="fill:#1C1D30;" d="M994.802,1451.217v0.005c-0.929,6.437-1.858,12.817-2.756,18.896
			c-5.041-11.6-21.423-77.305-21.711-78.461L994.802,1451.217z"/>
		<g>
			<g>
				<g>
					<path style="fill:#EEA886;" d="M1099.791,1276.905c0,0,7.079,4.561,11.153,2.011c3.464-2.168,9.507-2.469,11.367-2.564
						c2.488-0.129,9.979-3.368,10.172-0.231c0.193,3.136-12.092,5.935-14.551,7.035c-2.458,1.102,8.368,6.388,9.586,8.912
						s-8.554,19.961-15.564,15.473c-7.01-4.487-11.538-13.91-12.927-14.455c-1.389-0.544-5.23-3.063-5.23-3.063L1099.791,1276.905z"
						/>
				</g>
			</g>
		</g>
		<g>
			<g>
				<g>
					<path style="fill:#EEA886;" d="M1126.129,1290.634c0,0,20.55,15.165,21.074,17.322c0.523,2.157-0.364,3.222-2.345,1.884
						s-20.279-14.078-20.279-14.078s21.307,22.036,22.122,23.709c0.478,0.98-1.119,3.144-2.245,2.525
						c-1.126-0.617-23.493-21.25-23.493-21.25s19.856,20.609,20.121,22.213c0.231,1.402-1.731,3.021-3.309,1.594
						c-1.578-1.427-21.089-19.515-21.089-19.515s13.509,15.909,12.934,17.397c-0.352,0.91-1.645,2.845-5.002-1.37
						c-3.358-4.214-12.322-13.324-12.322-13.324L1126.129,1290.634z"/>
				</g>
			</g>
		</g>
		<g>
			<path style="fill:#FAFAFA;" d="M970.885,1131.516c0,0,5.101,1.113,13.604,10.225c8.503,9.11,12.755,24.093,14.982,28.952
				c2.227,4.858,30.369,49.805,31.989,50.817c1.62,1.012,25.054,17.104,38.012,29.455c12.958,12.35,37.075,27.104,37.075,27.104
				l-12.375,18.373c0,0-67.669-37.479-78.402-51.751c-11.464-15.246-52.337-60.008-52.337-60.008S937.431,1143.742,970.885,1131.516
				z"/>
		</g>
	</g>
	<g>
		<g>
			
				<linearGradient id="SVGID_00000016050245969774985110000001868047938442495408_" gradientUnits="userSpaceOnUse" x1="353.3271" y1="1805.6846" x2="878.4072" y2="1805.6846">
				<stop  offset="0" style="stop-color:#4BABF9"/>
				<stop  offset="1" style="stop-color:#6487D4"/>
			</linearGradient>
			<polygon style="fill:url(#SVGID_00000016050245969774985110000001868047938442495408_);" points="878.407,1723.465 
				578.207,1999.984 353.327,1999.984 775.207,1611.385 787.648,1624.904 865.967,1709.984 			"/>
			
				<rect x="820.475" y="1593.394" transform="matrix(-0.7355 0.6775 -0.6775 -0.7355 2584.2 2293.6306)" style="fill:#2D3038;" width="47.872" height="115.651"/>
			
				<ellipse transform="matrix(0.7071 -0.7071 0.7071 0.7071 -535.3609 1282.9248)" style="opacity:0.1;fill:#B8B8B8;" cx="1280.947" cy="1287.7" rx="466.573" ry="466.573"/>
			<path style="opacity:0.3;fill:#869AC2;" d="M1361.552,1744.127c0,0,426.725-430.412-2.358-913.355c0,0,0.005,0.004,0.009-0.002
				c72.406,12.338,142.925,42.109,205.105,90.147c202.564,156.492,239.92,447.571,83.424,650.142
				C1574.29,1666.121,1471.212,1724.799,1361.552,1744.127z"/>
			<path style="fill:#3F444F;" d="M1280.954,733.146c-306.273,0-554.555,248.283-554.555,554.555s248.282,554.553,554.555,554.553
				c306.271,0,554.554-248.281,554.554-554.553S1587.226,733.146,1280.954,733.146z M1280.953,1749.568
				c-255.082,0-461.867-206.785-461.867-461.867s206.785-461.867,461.867-461.867s461.867,206.785,461.867,461.867
				S1536.035,1749.568,1280.953,1749.568z"/>
		</g>
	</g>
	<g>
		<path style="fill:#16202E;" d="M535.682,1086.592c0,0,24.704,52.087,7.699,55.202c-23.35,4.276-32.797-38.865-32.797-38.865
			L535.682,1086.592z"/>
		<g>
			<path style="fill:#1D3B54;" d="M626.977,1672.405c0,0,15.702,21.139,13.548,24.489c-2.154,3.35-18.666,3.828-28.717,0
				c-10.051-3.829-10.29-28.604-14.837-39.247c-1.904-4.456,2.17-17.609,7.897-18.563c5.728-0.955,11.957,1.848,11.957,1.848
				S610.884,1655.926,626.977,1672.405z"/>
		</g>
		<g>
			<g>
				<path style="fill:#EEA886;" d="M616.93,1640.761c0,0,3.303,9.002,4.511,17.597c1.001,7.129,11.186,22.264,10.707,24.178
					c-0.478,1.915-13.401,3.648-18.666-1.286c-5.265-4.936-8.652-19.29-9.812-27.874c-1.08-7.997-2.442-11.947-2.442-11.947
					S611.905,1635.496,616.93,1640.761z"/>
			</g>
		</g>
		<g>
			<polygon style="fill:#1D3B54;" points="596.549,1655.787 596.549,1677.919 599.421,1677.919 599.421,1660.813 			"/>
		</g>
		<g>
			<path style="fill:#1D3B54;" d="M490.306,1672.756c0,0,15.136,20.788,12.982,24.139c-2.154,3.35-18.666,3.828-28.717,0
				c-10.051-3.829-10.29-28.604-14.837-39.247c-1.904-4.456,2.17-17.609,7.897-18.563c5.727-0.955,12.444,2.051,12.444,2.051
				S474.213,1656.275,490.306,1672.756z"/>
		</g>
		<g>
			<g>
				<path style="fill:#EEA886;" d="M480.074,1641.135c0,0,1.197,9.813,3.111,16.752c1.915,6.939,12.205,22.734,11.726,24.648
					c-0.478,1.915-13.401,3.648-18.667-1.286c-5.265-4.936-9.333-19.225-9.811-27.874c-0.479-8.65,1.196-14.291,1.196-14.291
					S475.049,1635.87,480.074,1641.135z"/>
			</g>
		</g>
		<g>
			<polygon style="fill:#1D3B54;" points="459.313,1655.787 459.313,1677.919 462.184,1677.919 462.184,1660.813 			"/>
		</g>
		<g>
			<g>
				<g>
					<path style="fill:#EEA886;" d="M593.716,1351.464c0,0,2.955,2.823,3.975,5.46c0.808,2.087,3.508,4.849,4.787,6.426
						c1.279,1.577,6.047,8.957,6.728,11.011c0.278,0.839-0.091,6.64,0.664,8.286c0.755,1.646,2.698,4.803,1.228,5.395
						s-4.002-1.772-4.002-1.772s0.594,1.54-0.533,2.452c-2.192,1.771-3.822,1.061-3.822,1.061s-0.438,1.955-1.541,2.467
						c-2.432,1.129-3.989,0.396-3.989,0.396s-0.859,1.242-2.65,1.633c-2.291,0.5-3.809-1.242-3.809-1.242s-2.72,1.272-3.94,0.125
						c-1.22-1.148-1.484-2.62-2.179-3.759c-0.694-1.138-3.571-12.229-2.089-21.062c1.482-8.833-5.418-15.457-5.418-15.457
						L593.716,1351.464z"/>
				</g>
			</g>
		</g>
		<g>
			<path style="fill:#FFFFFF;" d="M618.098,1419.381h-38.14c-3.874,0-7.025-3.15-7.025-7.024v-24.051
				c0-3.874,3.151-7.024,7.025-7.024h38.14c3.874,0,7.025,3.15,7.025,7.024v24.051
				C625.123,1416.23,621.972,1419.381,618.098,1419.381z M579.958,1385.995c-1.274,0-2.311,1.036-2.311,2.311v24.051
				c0,1.274,1.037,2.312,2.311,2.312h38.14c1.275,0,2.311-1.037,2.311-2.312v-24.051c0-1.274-1.037-2.311-2.311-2.311H579.958z"/>
		</g>
		<g>
			<rect x="527.48" y="1409.059" style="fill:#FFFFFF;" width="143.096" height="102.522"/>
		</g>
		<g>
			<path style="fill:#EEA886;" d="M538.248,1134.716c0,0-7.329,0.104-10.456,22.021c-3.126,21.916,2.798,31.077,3.503,40.197
				c0.706,9.12,11.406,68.023,11.696,70.629c0.29,2.604,1.726,33.951,5.897,42.271c4.172,8.319,34.838,55.469,35.249,57.823
				c0.411,2.354,14.891-8.214,14.891-8.214s-24.093-50.432-25.49-56.187c-1.397-5.755-11.094-35.137-9.561-44.106
				c1.533-8.97-4.294-58.448-3.73-63.955C560.81,1189.688,552.294,1138.061,538.248,1134.716z"/>
		</g>
		<g>
			<path style="fill:#285173;" d="M538.248,1134.716c0,0-7.329,0.104-10.456,22.021c-3.126,21.916-0.301,29.808,1.59,39.309
				c1.786,8.971,7.866,63.854,8.156,66.459c0.29,2.604,7.567,35.69,11.351,47.329c2.877,8.851,29.684,55.349,30.633,57.541
				c0.958,2.216,21.259-10.826,21.259-10.826s-26.737-52.164-28.134-57.919c-1.397-5.754-5.924-25.674-6.07-34.772
				c-0.171-10.688-6.894-63.155-6.331-68.662C560.81,1189.688,556.593,1138.448,538.248,1134.716z"/>
		</g>
		<g>
			<g>
				<path style="fill:#DB9C7C;" d="M607.206,1385.138c0,0-2.56-9.956-5.761-11.441c-3.201-1.486-2.48,2.156-2.48,2.156
					s-0.651-3.613-3.63-3.412c-2.979,0.201-1.904,4.423-1.904,4.423s-1.241-2.61-4.068-1.339c-2.828,1.271-1.127,4.575-1.127,4.575
					s-3.821-2.726-4.741,0.987c-1.551,6.269,3.316,12.073,3.316,12.073s1.307,1.285,3.94-0.125c0,0,2.992,3.379,6.459-0.391
					c0,0,5.038,1.359,5.53-2.863C602.74,1389.781,608.188,1390.918,607.206,1385.138z"/>
			</g>
		</g>
		<g>
			<g>
				<path style="fill:#1F3F59;" d="M555.71,1296.995c0,0,13.474,62.682,16.568,78.464c3.095,15.781,11.759,92.214,12.688,105.211
					c0.928,12.996,14.06,61.967,13.441,66.608c-0.619,4.642,20.206,96.748,20.206,96.748s-21.435,5.831-25.043,1.902
					c-3.064-3.336-33.859-87.562-33.859-110.769c0-32.08-24.198-72.925-27.259-80.102c-28.436-66.676-22.361-88.094-26.075-92.426
					c-3.713-4.332-4.036,2.677-6.202,12.27c-2.166,9.593-6.805,92.523-9.589,103.045c-2.785,10.521-0.623,46.107-2.169,64.056
					c-1.547,17.947-3.329,98.362-3.329,98.362s-15.526,3.569-22.902,0.13c-2.128-0.992-7.496-89.581-7.805-110.933
					c-0.309-21.352-0.639-50.799-1.237-60.033c-5.733-88.479-19.823-101.116,2.369-163.736
					C497.063,1188.545,555.71,1296.995,555.71,1296.995z"/>
			</g>
		</g>
		<g>
			<path style="fill:#EDDAD3;" d="M516.741,1126.818c0,0,14.142,6.678,19.052,7.66c4.91,0.982,23.962,25.73,27.301,34.766
				c3.339,9.035,0,22.587-6.874,38.497c-6.874,15.909-0.393,21.213-3.535,37.122c-3.143,15.91-5.893,49.595-5.303,58.434
				c0.589,8.838-79.444,10.507-97.71-5.6c0,0,18.359-27.496,20.716-31.425c2.357-3.929,0.393-25.337-1.768-30.837
				c-2.161-5.5-16.54-52.268-16.54-52.268s-11.765-35.919-1.138-44.172c9.232-7.169,34.392-9.726,38.909-11.297
				C494.368,1126.128,507.509,1125.443,516.741,1126.818z"/>
		</g>
		<g>
			<path style="fill:#D6C5BE;" d="M521.258,1158.343l8.593-10.063l-7.461-26.492C522.39,1121.788,519.883,1136.541,521.258,1158.343
				z"/>
		</g>
		<g>
			<polygon style="fill:#EEA886;" points="521.258,1144.889 521.258,1158.343 504.347,1145.705 			"/>
		</g>
		<g>
			<polygon style="fill:#D6C5BE;" points="521.258,1158.343 514.236,1149.651 491.525,1125.883 482.933,1133.447 			"/>
		</g>
		<g>
			<path style="fill:#285173;" d="M487.301,1128.334c0,0,19.849,30.123,20.797,43.38c0.949,13.257-7.377,112.433-14.043,144.312
				c-6.666,31.88-54.837-3.596-54.837-3.596s32.37-52.393,19.945-94.345c-12.425-41.952-16.941-58.725-16.941-58.725
				s4.275-23.362,19.426-26.649C474.929,1129.828,487.301,1128.334,487.301,1128.334z"/>
		</g>
		<g>
			<path style="fill:#285173;" d="M564.4,1173.268c0,0,3.581,12.669-10.366,40.67c0,0,0.222,35.836,0.614,47.031
				c0.393,11.196,8.309,51.453,8.309,51.453l-19.057,10.149c-2.779,1.627-6.219-0.63-5.831-3.826
				c3.906-32.218,16.613-154.428-10.836-187.276l11.015,3.247C538.248,1134.716,557.817,1150.729,564.4,1173.268z"/>
		</g>
		<g>
			<polygon style="fill:#FAE6DE;" points="529.851,1148.28 540.679,1151.271 522.39,1121.788 			"/>
		</g>
		<path style="fill:#1D3B54;" d="M557.316,1206.912c0,0,0.658,44.735-2.072,66.312l-1.21-59.286L557.316,1206.912z"/>
		<g>
			<path style="fill:#EEA886;" d="M523.914,1111.84c0,0-2.771,25.761-2.656,35.565c0,0-9.404,9.854-31.065-18.324
				c0,0,7.049-13.186,1.744-31.153C486.63,1079.961,523.914,1111.84,523.914,1111.84z"/>
		</g>
		<path style="fill:#EEA987;" d="M480.395,1063.051c0,0-3.251-3.902-4.463,0.028c-1.212,3.931,2.758,15.614,3.195,17.307
			c0,0,1.97,6.558,2.756,5.72C482.67,1085.27,480.395,1063.051,480.395,1063.051z"/>
		<path style="fill:#EEA987;" d="M537.171,1063.537c0,0,3.25-3.903,4.462,0.027s-2.758,15.615-3.195,17.307
			c0,0-1.97,6.558-2.756,5.721C534.896,1085.755,537.171,1063.537,537.171,1063.537z"/>
		<path style="fill:#EEA987;" d="M513.882,1025.69c0,0,29.832,4.593,25.465,51.584c-4.368,46.99-30.696,43.261-32.455,43.221
			c-1.759-0.039-26.413,0.978-28.546-56.361C478.347,1064.134,477.352,1021.732,513.882,1025.69z"/>
		<path style="fill:#16202E;" d="M484.068,1061.324c0,0,33.109,9.847,48.96,6.697c0,0,1.012,5.849,3.288,6.208
			c2.276,0.36,3.439-11.179,3.439-11.179s0.776-38.212-33.792-38.572c-34.569-0.359-27.545,41.391-27.545,41.391l0.47,7.135
			C478.889,1073.004,483.841,1074.959,484.068,1061.324z"/>
		<path style="fill:#A77860;" d="M495.162,1116.011c0,0,10.446,9.896,26.514,0.813c0,0-4.747,7.931-13.754,7.73
			C498.915,1124.354,495.162,1116.011,495.162,1116.011z"/>
		<g>
			<polygon style="fill:#FAE6DE;" points="514.236,1149.651 504.347,1162.615 484.142,1128.752 492.043,1124.295 			"/>
		</g>
		<path style="fill:#EEA886;" d="M433.293,1348.254c0,0-1.407,6.334,1.785,11.329c3.191,4.996,3.305,17.356,2.618,20.767
			c-0.686,3.409-4.213,29.568-5.87,31.363c-1.657,1.795-4.041-2.547-3.583-5.062c0.459-2.516,2.559-24.516,2.559-24.516
			s-3.97,26.036-5.765,27.393c-1.795,1.357-4.886,0.531-5.344-3.278c0,0-5.576,1.324-4.914-5.14l1.278-12.893
			c0,0-1.823,6.53-3.726,1.559c-1.011-2.644,2.118-16.968,1.853-20.02s2.33-13.547,2.33-13.547L433.293,1348.254z"/>
		<path style="fill:#285173;" d="M463.71,1133.925c-5.597-1.811-21.861,2.361-24.638,19.205
			c-2.776,16.844-3.887,35.538-6.478,44.607c-2.591,9.069-10.357,51.265-10.892,57.719c-0.92,11.097-2.871,22.546-3.755,40.369
			c-0.883,17.797-7.591,61.348-7.591,61.348l25.128,1.878c0,0,7.122-54.841,8.19-69.281c0.867-11.723,2.596-22.264,9.886-54.403
			c0,0,12.165-32.632,14.757-39.665S488.882,1142.069,463.71,1133.925z"/>
	</g>
</g>
</svg>
